<?xml version="1.0" encoding="utf-8"?>
<!-- Generator: Adobe Illustrator 19.0.0, SVG Export Plug-In . SVG Version: 6.00 Build 0)  -->
<svg version="1.1" xmlns="http://www.w3.org/2000/svg" xmlns:xlink="http://www.w3.org/1999/xlink" x="0px" y="0px"
	 viewBox="0 0 800 600" style="enable-background:new 0 0 800 600;" xml:space="preserve">
<style type="text/css">
	.st0{fill:none;}
	.st1{fill:#EDEDEE;}
	.st2{fill:#AAAAAA;}
	.st3{fill:#949B9B;}
</style>
<g id="图层_1">
	<line id="XMLID_44_" class="st0" x1="87.8" y1="348.3" x2="87.8" y2="348.3"/>
	<path id="XMLID_43_" class="st0" d="M323.6,89"/>
	<path id="XMLID_42_" class="st0" d="M323.6,89"/>
	<line id="XMLID_41_" class="st0" x1="73.3" y1="42.3" x2="73.3" y2="42.3"/>
	<path id="XMLID_40_" class="st0" d="M73.3,42.3"/>
	<path id="XMLID_39_" class="st0" d="M332.6,278.1"/>
	<g id="XMLID_106_">
		<path id="XMLID_110_" class="st1" d="M33.8,553.5c0,3.9-1.2,7.2-3.7,9.9c-2.5,2.7-5.9,4.1-10.3,4.1c-4.4,0-7.8-1.4-10.3-4.1
			c-2.5-2.7-3.7-6-3.7-9.9c0-3.9,1.2-7.2,3.7-9.9c2.4-2.7,5.9-4.1,10.3-4.1c4.4,0,7.8,1.4,10.3,4.1
			C32.6,546.4,33.8,549.7,33.8,553.5z"/>
		<path id="XMLID_107_" class="st1" d="M19.9,573.4c-7.6,0-12.2-3.3-14.7-6c-3.5-3.8-5.2-8.5-5.2-13.9c0-5.4,1.8-10.1,5.2-13.9
			c2.5-2.7,7-6,14.7-6c7.6,0,12.2,3.3,14.7,6c3.5,3.8,5.2,8.5,5.2,13.9c0,5.4-1.8,10.1-5.2,13.9C32.1,570.2,27.5,573.4,19.9,573.4z
			 M19.9,545.6c-3.5,0-5,1.2-5.9,2.1c-1.5,1.6-2.1,3.5-2.1,5.9c0,2.4,0.7,4.3,2.1,5.9c0.8,0.9,2.3,2.1,5.9,2.1c3.5,0,5-1.2,5.9-2.1
			c1.5-1.6,2.1-3.5,2.1-5.9c0-2.4-0.7-4.3-2.1-5.9C24.9,546.8,23.4,545.6,19.9,545.6z"/>
	</g>
	<g id="XMLID_100_">
		<path id="XMLID_104_" class="st1" d="M129.7,573.4c-11.3,0-21.8-2-31.5-6.1c-9.7-4.1-18.2-10-25.3-17.7
			c-7.2-7.8-12.8-17.4-17-28.8c-4.1-11.4-6.2-24.5-6.2-39.2c0-14.7,2.2-27.7,6.7-39.2c4.5-11.4,10.4-21,17.9-28.8
			c7.4-7.8,16-13.6,25.8-17.6c9.8-4,20-6,30.7-6c6.6,0,12.6,0.4,18,1.3c5.4,0.8,10.1,1.9,14.2,3.2c4.1,1.3,7.5,2.5,10.4,3.8
			c2.9,1.3,5.1,2.4,6.6,3.4l-5.6,15c-4.2-2.5-9.6-5-16.1-7.5c-6.5-2.4-14.6-3.7-24.2-3.7c-11,0-20.6,1.9-28.8,5.6
			c-8.2,3.7-15.1,9-20.7,15.7c-5.6,6.8-9.8,14.8-12.5,24.1c-2.8,9.3-4.2,19.6-4.2,30.9c0,11.7,1.4,22.2,4.2,31.5
			c2.8,9.4,6.9,17.4,12.3,23.9c5.4,6.6,12,11.7,19.9,15.2c7.9,3.5,16.9,5.3,27,5.3c11.1,0,20.5-1.1,28-3.2
			c7.5-2.1,13.2-4.3,17.1-6.5l4.8,14.7c-1.2,0.8-3.2,1.8-6.1,2.9c-2.9,1.1-6.5,2.2-10.9,3.4c-4.4,1.2-9.5,2.2-15.2,2.9
			C143.2,573,136.8,573.4,129.7,573.4z"/>
		<path id="XMLID_101_" class="st1" d="M129.7,579.3c-12.1,0-23.4-2.2-33.8-6.5c-10.5-4.4-19.7-10.8-27.4-19.2
			c-7.7-8.3-13.8-18.7-18.2-30.8c-4.4-12-6.6-25.9-6.6-41.2c0-15.4,2.4-29.3,7.1-41.3c4.7-12.1,11.2-22.4,19.1-30.7
			c8-8.3,17.4-14.7,27.9-19c10.5-4.2,21.5-6.4,32.9-6.4c6.9,0,13.2,0.5,18.9,1.3c5.7,0.9,10.8,2,15,3.4c4.2,1.3,7.9,2.7,11,4
			c3.2,1.4,5.7,2.7,7.5,3.9l3.9,2.6l-9.7,26.1l-6.1-3.7c-3.9-2.3-9-4.7-15.1-7c-5.8-2.2-13.2-3.3-22.1-3.3c-10.1,0-18.9,1.7-26.3,5
			c-7.3,3.3-13.5,8.1-18.5,14.1c-5,6.1-8.9,13.5-11.4,22c-2.6,8.7-3.9,18.5-3.9,29.2c0,11,1.3,21.1,3.9,29.9
			c2.5,8.6,6.3,15.9,11.2,21.9c4.8,5.8,10.8,10.4,17.7,13.6c7,3.2,15.3,4.8,24.5,4.8c10.6,0,19.4-1,26.4-2.9c7-2,12.3-4,15.8-5.9
			l6.3-3.6l8.4,25.8l-3.6,2.5c-1.6,1.2-4,2.3-7.4,3.6c-3,1.2-6.9,2.4-11.5,3.6c-4.6,1.2-10,2.3-16,3.1
			C143.8,578.9,137,579.3,129.7,579.3z M130.7,396.1c-9.8,0-19.4,1.9-28.4,5.5c-9,3.6-17,9.1-23.8,16.2
			c-6.9,7.2-12.5,16.2-16.6,26.8c-4.2,10.7-6.3,23.1-6.3,37c0,13.9,2,26.4,5.9,37.1c3.8,10.6,9.1,19.6,15.8,26.8
			c6.6,7.1,14.4,12.6,23.3,16.3c8.9,3.7,18.8,5.6,29.3,5.6c6.8,0,13-0.4,18.5-1.1c5.4-0.7,10.3-1.6,14.4-2.8
			c4.2-1.1,7.6-2.2,10.3-3.2c0.3-0.1,0.7-0.3,1-0.4l-1.1-3.4c-3.4,1.3-7.3,2.7-11.9,4c-8,2.2-18,3.4-29.6,3.4
			c-10.9,0-20.8-2-29.4-5.8c-8.7-3.9-16.1-9.6-22-16.9c-5.9-7.2-10.4-15.9-13.4-26c-2.9-9.9-4.4-21.1-4.4-33.2
			c0-11.8,1.5-22.8,4.4-32.6c3-10,7.6-18.8,13.7-26.2c6.1-7.4,13.8-13.3,22.8-17.3c8.9-4.1,19.4-6.1,31.2-6.1
			c10.3,0,19.1,1.4,26.3,4.1c4,1.5,7.6,3,10.8,4.6l1.4-3.7c-0.5-0.2-1-0.5-1.6-0.7c-2.7-1.2-5.9-2.4-9.8-3.6
			c-3.7-1.2-8.2-2.2-13.3-3C142.7,396.5,137,396.1,130.7,396.1z"/>
	</g>
	<g id="XMLID_94_">
		<path id="XMLID_98_" class="st1" d="M262,554.6v15h-46.2V388.4h17.2v166.2H262z"/>
		<path id="XMLID_95_" class="st1" d="M268,575.5h-58.1V382.4H239v166.2H268V575.5z M221.8,563.6h34.3v-3h-28.9V394.3h-5.3V563.6z"
			/>
	</g>
	<g id="XMLID_85_">
		<path id="XMLID_91_" class="st1" d="M453.3,481.6c0,15-2.2,28.3-6.6,39.8c-4.4,11.5-10.4,21.1-17.9,28.8
			c-7.5,7.7-16.3,13.5-26.2,17.4c-10,3.9-20.5,5.8-31.7,5.8c-11.2,0-21.7-1.9-31.7-5.8c-10-3.9-18.7-9.7-26.2-17.4
			c-7.5-7.7-13.5-17.3-17.9-28.8c-4.4-11.5-6.6-24.7-6.6-39.8c0-15,2.2-28.3,6.6-39.7c4.4-11.4,10.3-20.9,17.9-28.6
			c7.5-7.7,16.3-13.5,26.2-17.4c10-3.9,20.5-5.8,31.7-5.8c11.1,0,21.7,1.9,31.7,5.8c10,3.9,18.7,9.7,26.2,17.4
			c7.5,7.7,13.5,17.2,17.9,28.6C451.1,453.4,453.3,466.6,453.3,481.6z M435,481.6c0-11.8-1.5-22.4-4.6-31.8
			c-3-9.4-7.3-17.4-12.9-23.9c-5.6-6.6-12.3-11.6-20.1-15.1c-7.9-3.5-16.7-5.2-26.5-5.2c-9.8,0-18.6,1.7-26.5,5.2
			c-7.9,3.5-14.6,8.5-20.1,15.1c-5.6,6.6-9.9,14.6-12.9,23.9c-3,9.4-4.6,20-4.6,31.8c0,11.8,1.5,22.4,4.6,31.8
			c3,9.4,7.3,17.4,12.9,23.9c5.6,6.6,12.3,11.7,20.1,15.2c7.9,3.5,16.7,5.3,26.5,5.3c9.8,0,18.6-1.8,26.5-5.3
			c7.9-3.5,14.6-8.6,20.1-15.2c5.6-6.6,9.9-14.6,12.9-23.9C433.5,504.1,435,493.5,435,481.6z"/>
		<path id="XMLID_86_" class="st1" d="M370.9,579.3c-11.8,0-23.2-2.1-33.8-6.2c-10.7-4.2-20.2-10.5-28.3-18.7
			c-8.1-8.2-14.5-18.6-19.2-30.8c-4.6-12.1-7-26.2-7-41.9c0-15.7,2.4-29.8,7-41.8c4.7-12.1,11.1-22.4,19.2-30.7
			c8.1-8.3,17.6-14.6,28.3-18.7c10.6-4.1,22-6.2,33.8-6.2c11.8,0,23.2,2.1,33.8,6.2c10.7,4.2,20.2,10.5,28.3,18.7
			c8.1,8.2,14.5,18.6,19.2,30.7c4.6,12,7,26.1,7,41.8c0,15.7-2.3,29.8-7,41.9c-4.7,12.2-11.1,22.6-19.2,30.8
			c-8.1,8.3-17.6,14.6-28.3,18.7C394.1,577.2,382.8,579.3,370.9,579.3z M370.9,396.1c-10.4,0-20.3,1.8-29.5,5.4
			c-9.1,3.6-17.3,8.9-24.1,16c-6.9,7.1-12.5,16-16.6,26.6c-4.1,10.7-6.2,23.3-6.2,37.5c0,14.2,2.1,26.9,6.2,37.7
			c4.1,10.7,9.6,19.7,16.6,26.7c6.9,7,15,12.4,24.1,16c9.2,3.6,19.2,5.4,29.5,5.4c10.3,0,20.3-1.8,29.5-5.4
			c9.1-3.6,17.2-8.9,24.1-16c6.9-7.1,12.5-16.1,16.6-26.7c4.1-10.8,6.2-23.4,6.2-37.7c0-14.2-2.1-26.9-6.2-37.5
			c-4.1-10.6-9.7-19.5-16.6-26.6c-6.9-7-15-12.4-24.1-16C391.2,397.9,381.3,396.1,370.9,396.1z M370.9,563.9
			c-10.6,0-20.3-2-28.9-5.8c-8.6-3.9-16.1-9.5-22.2-16.8c-6.1-7.2-10.8-15.9-14-26c-3.2-9.9-4.9-21.2-4.9-33.6
			c0-12.4,1.6-23.7,4.9-33.6c3.3-10.1,8-18.8,14-26c6.1-7.3,13.6-12.9,22.3-16.7c8.6-3.8,18.3-5.7,28.9-5.7
			c10.6,0,20.3,1.9,28.9,5.7c8.7,3.8,16.2,9.4,22.3,16.7c6.1,7.2,10.8,15.9,14,26c3.2,9.9,4.9,21.2,4.9,33.6
			c0,12.4-1.6,23.7-4.9,33.6c-3.3,10.1-8,18.8-14,26c-6.1,7.2-13.6,12.9-22.2,16.8C391.3,561.9,381.5,563.9,370.9,563.9z
			 M370.9,411.6c-8.9,0-17,1.6-24.1,4.7c-7,3.1-13,7.6-18,13.5c-5,6-9,13.3-11.8,21.9c-2.8,8.7-4.3,18.8-4.3,30
			c0,11.1,1.4,21.2,4.3,30c2.8,8.6,6.8,16,11.8,21.9c5,5.9,11,10.5,18.1,13.6c7,3.2,15.1,4.8,24,4.8c8.9,0,17-1.6,24-4.8
			c7-3.2,13.1-7.7,18.1-13.6c5-6,9-13.3,11.8-21.9c2.8-8.7,4.3-18.8,4.3-30c0-11.1-1.4-21.2-4.3-30c-2.8-8.6-6.8-16-11.8-21.9
			c-5-5.9-11-10.4-18-13.5C387.9,413.1,379.8,411.6,370.9,411.6z"/>
	</g>
	<g id="XMLID_75_">
		<g id="XMLID_76_">
			<path id="XMLID_82_" class="st1" d="M794,564.6c-6,2.1-13.6,4-22.9,5.9s-21,2.8-35.2,2.8c-11.7,0-22.4-1.9-32-5.7
				c-9.6-3.8-17.8-9.3-24.7-16.5c-6.9-7.2-12.3-16-16.1-26.3c-3.8-10.3-5.7-21.9-5.7-34.9c0-12.1,1.6-23.3,4.8-33.5
				c3.2-10.2,7.9-19,14.1-26.4c6.2-7.4,13.7-13.2,22.7-17.3c9-4.1,19.2-6.2,30.7-6.2c10.5,0,19.6,1.5,27.3,4.5
				c7.7,3,13.3,5.8,16.8,6.1v-29H794V564.6z M774,438.9c-1.9-1.4-4.2-3-7-4.6c-2.8-1.6-6-3.2-9.7-4.6c-3.7-1.4-7.7-2.6-12-3.6
				c-4.3-0.9-8.9-1.4-13.6-1.4c-9.9,0-18.2,1.8-24.9,5.3c-6.7,3.5-12.1,8.2-16.2,14.1c-4.1,5.9-7.1,12.8-9,20.7
				c-1.9,7.9-2.8,16.3-2.8,25.2c0,21,5.3,37.1,15.8,48.3c10.5,11.2,24.4,16.8,41.7,16.8c9.9,0,17.9-0.5,23.9-1.4
				c6.1-0.9,10.7-1.9,13.7-2.9V438.9z"/>
			<path id="XMLID_77_" class="st1" d="M736,579.2c-12.4,0-23.9-2.1-34.2-6.1c-10.3-4.1-19.4-10.1-26.8-17.9
				c-7.4-7.8-13.3-17.3-17.3-28.3c-4-10.9-6.1-23.3-6.1-37c0-12.7,1.7-24.6,5.1-35.3c3.4-10.9,8.5-20.5,15.2-28.4
				c6.7-8.1,15.1-14.4,24.8-18.9c9.7-4.5,20.9-6.7,33.2-6.7c11.2,0,21.1,1.6,29.5,4.9c2.4,0.9,4.5,1.8,6.5,2.6
				c0.8,0.3,1.5,0.6,2.3,0.9V382h32v186.8l-4,1.4c-6.2,2.1-14.1,4.2-23.6,6.1C762.7,578.2,750.5,579.2,736,579.2z M729.8,412.4
				c-10.6,0-20.1,1.9-28.3,5.6c-8.1,3.7-15,9-20.6,15.7c-5.6,6.8-10,15-12.9,24.4c-3,9.6-4.5,20.2-4.5,31.7
				c0,12.2,1.8,23.3,5.3,32.8c3.5,9.5,8.5,17.6,14.8,24.2c6.3,6.6,13.9,11.6,22.6,15.1c8.8,3.5,18.8,5.3,29.8,5.3
				c13.8,0,25.2-0.9,34-2.7c7-1.4,13-2.9,18.1-4.4V393.9h-8.2v29.5l-6.4-0.5c-3.4-0.2-7.2-1.8-12.4-4c-1.9-0.8-4-1.6-6.2-2.5
				C748,413.8,739.5,412.4,729.8,412.4z M736.3,561c-18.9,0-34.4-6.3-46-18.7c-11.5-12.3-17.4-29.9-17.4-52.4c0-9.3,1-18.2,2.9-26.5
				c2-8.6,5.3-16.3,9.9-22.8c4.6-6.6,10.8-12,18.3-15.9c7.5-3.9,16.8-5.9,27.6-5.9c5.1,0,10.1,0.5,14.8,1.5c4.6,1,9,2.3,13,3.8
				c4,1.6,7.6,3.3,10.6,5.1c3,1.8,5.5,3.5,7.6,5.1l2.3,1.8v119l-4.1,1.4c-3.4,1.1-8.2,2.2-14.7,3.2C754.8,560.5,746.4,561,736.3,561
				z M731.6,430.6c-8.9,0-16.3,1.5-22.1,4.6c-5.8,3-10.6,7.1-14.1,12.2c-3.7,5.2-6.4,11.5-8,18.6c-1.7,7.4-2.6,15.5-2.6,23.8
				c0,19.3,4.8,34.2,14.1,44.3c9.4,10.1,21.6,14.9,37.4,14.9c9.5,0,17.3-0.4,23-1.3c3.4-0.5,6.3-1.1,8.7-1.6V441.9
				c-1.2-0.8-2.5-1.7-4-2.6c-2.5-1.5-5.5-2.9-8.9-4.2c-3.4-1.3-7.2-2.4-11.1-3.3C740.1,431,735.9,430.6,731.6,430.6z"/>
		</g>
	</g>
	<g id="XMLID_66_">
		<path id="XMLID_72_" class="st2" d="M439.6,131.2c14.7,0,27.1,2.1,37.3,6.3c10.2,4.2,18.5,9.9,24.8,17.3
			c6.3,7.3,10.9,16,13.8,26.1c2.9,10.1,4.3,21,4.3,32.8v140.6c-2.9,0.9-7,1.8-12.5,2.8c-5.5,1-11.8,2.1-19,3.2
			c-7.2,1.1-15.2,2.1-23.9,2.8c-8.8,0.7-17.8,1.1-27,1.1c-11.8,0-22.6-1.3-32.6-3.9c-9.9-2.6-18.5-6.7-25.9-12.3
			c-7.3-5.6-13.1-12.8-17.3-21.6c-4.2-8.8-6.3-19.5-6.3-32.1c0-12.1,2.3-22.4,6.9-31.1c4.6-8.6,11.1-15.7,19.4-21.4
			c8.3-5.6,18.3-9.7,29.8-12.3c11.5-2.6,24-3.9,37.5-3.9c4,0,8.3,0.2,12.7,0.6c4.5,0.4,8.8,1,12.9,1.7c4.2,0.7,7.8,1.4,10.8,2.2
			c3,0.7,5.1,1.4,6.3,1.9v-13.8c0-7.8-0.6-15.3-1.7-22.6c-1.2-7.3-3.7-13.9-7.5-19.8c-3.9-5.9-9.3-10.6-16.4-14.2
			c-7.1-3.6-16.3-5.4-27.8-5.4c-16.4,0-28.6,1.2-36.7,3.5c-8.1,2.3-14,4.2-17.7,5.6l-3.9-24.6c4.9-2.3,12.4-4.5,22.6-6.5
			C413,132.2,425.2,131.2,439.6,131.2z M442.2,339.1c10.9,0,20.5-0.4,28.7-1.1c8.2-0.7,15.2-1.7,20.9-2.8v-78.5
			c-3.2-1.4-8.2-2.9-15.1-4.5c-6.9-1.6-16.4-2.4-28.5-2.4c-6.9,0-14.1,0.5-21.6,1.5c-7.5,1-14.4,3.2-20.7,6.5
			c-6.3,3.3-11.5,7.8-15.5,13.6c-4,5.8-6,13.4-6,22.9c0,8.3,1.4,15.4,4.1,21.1c2.7,5.8,6.6,10.4,11.6,13.8c5,3.5,11.1,6,18.1,7.5
			C425.3,338.3,433.3,339.1,442.2,339.1z"/>
		<path id="XMLID_67_" class="st2" d="M437.5,371.5c-12.4,0-24-1.4-34.4-4.1c-10.8-2.8-20.4-7.4-28.5-13.6
			c-8.3-6.3-14.8-14.5-19.4-24.3c-4.6-9.7-7-21.6-7-35.3c0-13.3,2.6-24.9,7.8-34.5c5.2-9.7,12.5-17.7,21.8-24
			c9.1-6.1,19.9-10.6,32.3-13.4c12-2.7,25.2-4.1,39.2-4.1c4.2,0,8.8,0.2,13.4,0.7c4.6,0.4,9.1,1,13.5,1.8c3.1,0.5,5.9,1.1,8.4,1.6
			v-4c0-7.3-0.6-14.6-1.6-21.5c-1-6.2-3.1-11.9-6.4-16.9c-3.2-4.8-7.6-8.7-13.6-11.7c-6-3-14.2-4.6-24.5-4.6
			c-15.6,0-27.3,1.1-34.6,3.2c-7.8,2.2-13.6,4.1-17.1,5.4l-8.5,3.3l-6.2-39.1l5-2.4c5.5-2.6,13.5-4.9,24.4-7
			c10.7-2.1,23.5-3.2,38.3-3.2c15.5,0,29,2.3,40.1,6.8c11.3,4.6,20.5,11.1,27.6,19.3c7,8.1,12.2,17.8,15.3,28.9
			c3.1,10.7,4.6,22.4,4.6,34.8v146.1l-5.3,1.6c-3.2,1-7.5,1.9-13.3,3c-5.5,1-11.9,2.1-19.2,3.3c-7.4,1.2-15.6,2.1-24.5,2.9
			C456,371.2,446.8,371.5,437.5,371.5z M449.1,233.1c-12.9,0-25,1.2-35.9,3.7c-10.6,2.4-19.7,6.1-27.3,11.2
			c-7.3,4.9-13,11.2-17,18.7c-4,7.5-6,16.8-6,27.6c0,11.5,1.9,21.2,5.5,29c3.6,7.7,8.7,14,15.1,18.9c6.5,5,14.3,8.7,23.3,11
			c9.3,2.4,19.6,3.6,30.7,3.6c8.9,0,17.8-0.4,26.4-1.1c8.5-0.7,16.4-1.6,23.4-2.7c7.1-1.1,13.5-2.2,18.8-3.2
			c2.4-0.4,4.6-0.9,6.5-1.3V213.6c0-11-1.4-21.4-4-30.8c-2.6-9-6.7-16.8-12.3-23.3c-5.5-6.4-12.9-11.5-22-15.2
			c-9.3-3.8-20.9-5.7-34.5-5.7c-13.8,0-25.7,1-35.5,2.9c-6.4,1.3-11.7,2.6-15.8,3.9l1.6,10c2.8-0.9,6-1.8,9.7-2.9
			c8.8-2.5,21.5-3.7,38.7-3.7c12.6,0,23.1,2.1,31.2,6.2c8.2,4.2,14.6,9.8,19.2,16.8c4.4,6.8,7.4,14.4,8.7,22.8
			c1.2,7.7,1.8,15.7,1.8,23.8v25.7l-10.7-5.3c0,0-1-0.5-4.7-1.4c-2.9-0.7-6.3-1.4-10.3-2.1c-4-0.7-8.2-1.2-12.4-1.7
			C456.9,233.3,452.9,233.1,449.1,233.1z M442.2,346.5c-9.4,0-18-0.9-25.6-2.6c-7.9-1.8-14.9-4.7-20.7-8.7
			c-6.1-4.2-10.9-9.8-14.1-16.7c-3.2-6.7-4.8-14.9-4.8-24.3c0-11,2.5-20.1,7.4-27.1c4.7-6.7,10.8-12.1,18.2-15.9
			c7.1-3.7,14.8-6.1,23.1-7.2c7.8-1,15.4-1.6,22.6-1.6c12.7,0,22.6,0.8,30.1,2.6c7.5,1.7,12.8,3.3,16.5,5l4.3,2v89.4l-6,1.2
			c-6,1.2-13.3,2.2-21.7,2.9C463.2,346.1,453.3,346.5,442.2,346.5z M448.3,257.2c-6.5,0-13.5,0.5-20.6,1.4
			c-6.6,0.9-12.7,2.8-18.3,5.7c-5.3,2.8-9.5,6.5-12.9,11.3c-3.1,4.5-4.7,10.7-4.7,18.6c0,7.2,1.1,13.2,3.4,18
			c2.2,4.6,5.2,8.2,9.1,10.9c4.2,2.9,9.5,5.1,15.5,6.4c6.5,1.5,14,2.2,22.3,2.2c10.7,0,20.1-0.4,28-1.1c5.2-0.5,10-1,14.2-1.6v-67.1
			c-2.2-0.7-5.2-1.5-9.4-2.5C468.7,258,459.7,257.2,448.3,257.2z"/>
	</g>
	<g id="XMLID_60_">
		<path id="XMLID_64_" class="st2" d="M553.8,144.1c8.3-2.3,19.6-4.9,33.6-7.8c14.1-2.9,31.3-4.3,51.8-4.3c17,0,31.1,2.4,42.5,7.3
			c11.4,4.9,20.4,11.9,27.2,20.9c6.8,9.1,11.6,19.9,14.5,32.6c2.9,12.7,4.3,26.6,4.3,41.8v121h-28v-112c0-15.8-1.1-29.2-3.2-40.1
			c-2.2-10.9-5.8-19.8-10.8-26.7c-5-6.9-11.6-11.9-19.8-14.9c-8.2-3-18.5-4.5-30.8-4.5c-13.2,0-24.7,0.7-34.3,2.2
			c-9.6,1.4-15.9,2.7-18.8,3.9v192.2h-28V144.1z"/>
		<path id="XMLID_61_" class="st2" d="M735,363.1h-42.8V243.8c0-15.3-1-28.3-3.1-38.7c-1.9-9.8-5.1-17.8-9.5-23.8
			c-4.2-5.7-9.6-9.8-16.4-12.3c-7.3-2.7-16.9-4.1-28.3-4.1c-12.8,0-24,0.7-33.2,2.1c-5.9,0.9-9.8,1.6-12.5,2.2v194h-42.8V138.5
			l5.4-1.5c8.5-2.3,19.9-5,34.1-7.9c14.5-3,32.4-4.5,53.2-4.5c17.9,0,33.2,2.7,45.4,7.9c12.5,5.4,22.7,13.2,30.2,23.3
			c7.3,9.9,12.6,21.8,15.7,35.4c3,13.2,4.5,27.8,4.5,43.5V363.1z M707,348.3h13.2V234.7c0-14.6-1.4-28.1-4.1-40.2
			c-2.6-11.6-7.1-21.6-13.2-29.8c-5.9-8-14.1-14.2-24.2-18.5c-10.4-4.5-23.7-6.7-39.6-6.7c-19.8,0-36.7,1.4-50.3,4.2
			c-11,2.2-20.3,4.3-27.7,6.2v198.5h13.2V158.5l4.7-1.9c2.2-0.9,6.7-2.3,20.4-4.3c10-1.5,21.9-2.2,35.4-2.2c13.2,0,24.4,1.7,33.4,5
			c9.5,3.5,17.4,9.4,23.3,17.5c5.7,7.8,9.7,17.7,12.1,29.7c2.2,11.4,3.4,25.3,3.4,41.6V348.3z"/>
	</g>
	<g id="XMLID_54_">
		<path id="XMLID_58_" class="st2" d="M792.6,354.8h-28V137.3h28V354.8z"/>
		<path id="XMLID_55_" class="st2" d="M800,362.2h-42.8V129.9H800V362.2z M772,347.4h13.2V144.7H772V347.4z"/>
	</g>
	<g id="XMLID_1_">
		<path id="XMLID_52_" class="st1" d="M625.1,565.8c-6.7,1.8-15.7,3.9-27.1,6.2c-11.3,2.3-25.2,3.5-41.6,3.5c-13.6,0-25-2-34.2-5.9
			c-9.1-3.9-16.4-9.5-21.9-16.8c-5.4-7.3-9.3-16-11.6-26.2c-2.3-10.2-3.5-21.4-3.5-33.6V392.7h22.5v93c0,12.7,0.9,23.5,2.6,32.3
			c1.7,8.8,4.6,16,8.7,21.5c4,5.5,9.4,9.5,16,12c6.6,2.4,14.9,3.6,24.8,3.6c10.6,0,19.8-0.6,27.6-1.7c7.8-1.2,12.8-2.2,15.1-3.1
			V392.7h22.5V565.8z"/>
		<path id="XMLID_49_" class="st1" d="M556.4,581.5c-14.4,0-26.7-2.1-36.5-6.4c-10.1-4.3-18.2-10.6-24.3-18.7
			c-5.9-7.9-10.2-17.5-12.7-28.4c-2.4-10.6-3.6-22.3-3.6-35V386.8h34.5v98.9c0,12.3,0.8,22.7,2.5,31.1c1.6,7.9,4.1,14.3,7.6,19.2
			c3.4,4.6,7.7,7.9,13.2,9.9c5.9,2.2,13.6,3.3,22.7,3.3c10.3,0,19.3-0.6,26.7-1.7c4.7-0.7,7.9-1.3,10-1.8V386.8h34.5v183.6l-4.4,1.2
			c-6.8,1.9-16,4-27.4,6.3C587.6,580.3,573.2,581.5,556.4,581.5z M491.3,398.7V493c0,11.7,1.1,22.6,3.3,32.3
			c2.1,9.3,5.7,17.4,10.6,23.9c4.8,6.4,11.3,11.4,19.4,14.9c8.3,3.6,19.1,5.4,31.8,5.4c15.9,0,29.5-1.1,40.4-3.3
			c8.8-1.8,16.3-3.5,22.3-5V398.7h-10.6v155.6l-3.7,1.5c-1.8,0.7-5.4,1.8-16.4,3.5c-8,1.2-17.6,1.8-28.5,1.8
			c-10.6,0-19.6-1.3-26.9-4c-7.7-2.8-14-7.6-18.7-14c-4.5-6.2-7.8-14.3-9.7-23.9c-1.8-9.1-2.7-20.4-2.7-33.4v-87H491.3z"/>
	</g>
	<g id="Layer_2">
	</g>
</g>
<g id="Layer_3">
	<line id="XMLID_71_" class="st3" x1="-304.2" y1="279.5" x2="-304.2" y2="279.5"/>
	<path id="XMLID_68_" class="st3" d="M-102.3,57.5"/>
	<path id="XMLID_59_" class="st3" d="M-102.3,57.5"/>
	<line id="XMLID_57_" class="st3" x1="-316.6" y1="17.6" x2="-316.6" y2="17.6"/>
	<path id="XMLID_56_" class="st3" d="M-316.6,17.6"/>
	<path id="XMLID_53_" class="st3" d="M-94.7,219.4"/>
	<g id="XMLID_2_">
		<g id="XMLID_73_">
			<path id="XMLID_78_" class="st2" d="M58.7,329.1c-0.8-0.7-1.7-1.5-2.5-2.2C57,327.6,57.9,328.4,58.7,329.1z"/>
			<path id="XMLID_74_" class="st2" d="M287.3,72.7C217.1,8.9,108.5,14,44.7,84.2C-19.1,154.4-14,263,56.2,326.8
				C2.6,278.1-1.4,195.1,47.4,141.5c48.8-53.6,131.8-57.6,185.4-8.8c53.6,48.8,57.6,131.8,8.8,185.4c-48,52.8-129.2,57.4-182.8,11
				c70.2,61.4,177,55.6,240.1-13.8C362.7,245.1,357.5,136.5,287.3,72.7z"/>
		</g>
		<g id="XMLID_37_">
			<path id="XMLID_50_" class="st1" d="M301.1,312.8c-0.7,0.8-1.5,1.7-2.2,2.5C299.6,314.5,300.4,313.6,301.1,312.8z"/>
			<path id="XMLID_46_" class="st1" d="M296.5,317.8c0.8-0.8,1.5-1.6,2.3-2.5C298.1,316.2,297.3,317,296.5,317.8z"/>
			<path id="XMLID_45_" class="st1" d="M113.5,324.1c-53.6-48.8-57.6-131.8-8.8-185.4C153.4,85.1,236.4,81.2,290,130
				c52.8,48,57.4,129.2,11,182.8c61.4-70.2,55.6-177-13.8-240.1C217.1,8.9,108.5,14,44.7,84.2C-19.1,154.4-14,263,56.2,326.8
				c69.3,63.1,176.2,58.8,240.3-9C247.5,369.1,166.2,372.1,113.5,324.1z"/>
		</g>
	</g>
</g>
</svg>
