<?xml version="1.0" encoding="UTF-8" standalone="no"?>
<!-- Created with Inkscape (http://www.inkscape.org/) -->

<svg
   xmlns:dc="http://purl.org/dc/elements/1.1/"
   xmlns:cc="http://creativecommons.org/ns#"
   xmlns:rdf="http://www.w3.org/1999/02/22-rdf-syntax-ns#"
   xmlns:svg="http://www.w3.org/2000/svg"
   xmlns="http://www.w3.org/2000/svg"
   xmlns:sodipodi="http://sodipodi.sourceforge.net/DTD/sodipodi-0.dtd"
   xmlns:inkscape="http://www.inkscape.org/namespaces/inkscape"
   width="3000"
   height="373.35461"
   id="svg2"
   version="1.1"
   inkscape:version="0.48.4 r9939"
   sodipodi:docname="ani_project_title_white.svg">
  <defs
     id="defs4">
    <clipPath
       id="clipPath2999"
       clipPathUnits="userSpaceOnUse">
      <path
         id="path3001"
         d="M 0,300 2400,300 2400,0 0,0 0,300 z"
         inkscape:connector-curvature="0" />
    </clipPath>
  </defs>
  <sodipodi:namedview
     id="base"
     pagecolor="#ffffff"
     bordercolor="#666666"
     borderopacity="1.0"
     inkscape:pageopacity="0.0"
     inkscape:pageshadow="2"
     inkscape:zoom="0.24748737"
     inkscape:cx="1389.3786"
     inkscape:cy="331.61718"
     inkscape:document-units="px"
     inkscape:current-layer="layer1"
     showgrid="false"
     fit-margin-top="0"
     fit-margin-left="0"
     fit-margin-right="0"
     fit-margin-bottom="0"
     showguides="true"
     inkscape:guide-bbox="true"
     inkscape:window-width="1920"
     inkscape:window-height="1022"
     inkscape:window-x="0"
     inkscape:window-y="27"
     inkscape:window-maximized="1" />
  <metadata
     id="metadata7">
    <rdf:RDF>
      <cc:Work
         rdf:about="">
        <dc:format>image/svg+xml</dc:format>
        <dc:type
           rdf:resource="http://purl.org/dc/dcmitype/StillImage" />
        <dc:title />
      </cc:Work>
    </rdf:RDF>
  </metadata>
  <g
     inkscape:label="Layer 1"
     inkscape:groupmode="layer"
     id="layer1"
     transform="translate(-1.4261877,-676.31078)">
    <g
       transform="matrix(1.314902,0,0,-1.314902,-11.668071,1060.8163)"
       inkscape:label="ani_logo_title"
       id="g2993"
       style="fill:#cccccc">
      <g
         id="g2995"
         style="fill:#cccccc">
        <g
           clip-path="url(#clipPath2999)"
           id="g2997"
           style="fill:#cccccc">
          <g
             transform="translate(37.0713,79.1514)"
             id="g3003"
             style="fill:#cccccc">
            <path
               id="path3005"
               style="fill:#cccccc;fill-opacity:1;fill-rule:nonzero;stroke:none"
               d="m 0,0 c 9.612,-8.174 19.497,-15.675 29.857,-21.908 1.297,-0.775 2.603,-1.53 3.915,-2.259 1.304,-0.738 2.613,-1.463 3.933,-2.154 2.638,-1.387 5.305,-2.68 7.997,-3.856 5.361,-2.391 10.811,-4.38 16.301,-5.807 10.951,-2.948 21.993,-3.786 32.393,-2.195 5.205,0.793 10.247,2.172 15.091,4.076 4.839,1.921 9.484,4.354 13.909,7.249 4.425,2.89 8.635,6.224 12.629,9.907 3.921,3.578 7.387,7.445 10.5,11.596 6.181,8.311 10.708,17.725 13.254,27.622 1.276,4.941 2.091,9.994 2.368,15.065 0.318,5.065 0.109,10.149 -0.586,15.142 -0.669,5.001 -1.875,9.903 -3.525,14.633 -1.633,4.732 -3.781,9.278 -6.333,13.589 -1.273,2.155 -2.659,4.248 -4.151,6.268 -0.744,1.009 -1.516,2.001 -2.314,2.976 l -0.548,0.662 -0.666,0.784 -0.536,0.618 -0.591,0.659 c -3.171,3.498 -6.794,6.536 -10.715,9.144 -7.86,5.192 -17.094,8.417 -26.667,9.354 -9.572,0.92 -19.446,-0.418 -28.546,-4.085 -4.562,-1.807 -8.922,-4.203 -13.004,-7.101 -0.513,-0.367 -1.01,-0.725 -1.527,-1.119 l -0.683,-0.521 -0.697,-0.556 c -0.926,-0.75 -1.822,-1.536 -2.691,-2.356 -1.739,-1.638 -3.379,-3.398 -4.874,-5.29 -6.007,-7.54 -9.877,-17.113 -10.615,-27.134 -0.769,-10.025 1.699,-20.424 7.463,-29.377 2.841,-4.506 6.466,-8.5 10.713,-11.826 4.24,-3.336 9.166,-5.862 14.492,-7.415 5.329,-1.508 11.088,-1.989 16.872,-1.14 5.798,0.794 11.564,2.954 16.972,6.155 C 105.286,14.576 99.979,10.601 93.906,7.935 87.83,5.295 81.003,3.999 74.127,4.309 c -6.89,0.24 -13.78,2.097 -20.163,5.166 -6.389,3.076 -12.205,7.507 -17.18,12.759 -4.968,5.268 -9.115,11.544 -12.082,18.444 -2.978,6.889 -4.784,14.383 -5.311,21.995 -0.552,7.605 0.175,15.336 2.051,22.798 1.902,7.447 4.939,14.642 9.043,21.187 2.046,3.275 4.33,6.408 6.854,9.332 1.263,1.461 2.578,2.876 3.946,4.238 l 1.033,1.013 1.077,1.014 c 0.665,0.62 1.371,1.249 2.069,1.86 5.621,4.895 11.894,9.081 18.588,12.438 13.407,6.691 28.522,9.943 43.574,9.273 15.047,-0.606 30.074,-5.134 43.184,-13.266 6.563,-4.043 12.593,-9.026 17.933,-14.665 l 0.991,-1.067 1.021,-1.134 0.864,-0.991 0.954,-1.136 c 1.192,-1.438 2.35,-2.909 3.472,-4.411 2.245,-3.001 4.343,-6.128 6.279,-9.363 3.868,-6.471 7.036,-13.396 9.478,-20.573 2.43,-7.187 4.076,-14.628 4.964,-22.152 0.859,-7.528 0.928,-15.133 0.24,-22.649 -0.729,-7.51 -2.196,-14.933 -4.421,-22.094 -4.451,-14.32 -11.858,-27.599 -21.508,-38.656 -4.792,-5.538 -10.184,-10.545 -15.868,-14.884 -5.591,-4.258 -11.59,-8.096 -17.965,-11.308 -6.37,-3.213 -13.121,-5.792 -20.089,-7.532 -6.964,-1.746 -14.135,-2.649 -21.243,-2.653 -7.111,-0.013 -14.144,0.882 -20.891,2.514 -3.372,0.826 -6.674,1.832 -9.896,2.99 -3.216,1.172 -6.349,2.509 -9.394,3.97 -6.073,2.967 -11.79,6.444 -17.141,10.306 -5.316,3.921 -10.333,8.121 -14.934,12.705 C 14.409,-21.12 6.509,-10.928 0,0"
               inkscape:connector-curvature="0" />
          </g>
          <g
             transform="translate(29.5806,91.0684)"
             id="g3007"
             style="fill:#cccccc">
            <path
               id="path3009"
               style="fill:#cccccc;fill-opacity:1;fill-rule:nonzero;stroke:none"
               d="m 0,0 c -6.863,11.556 -12.113,24.312 -15.472,37.787 -0.856,3.368 -1.58,6.782 -2.155,10.235 -0.589,3.453 -1.061,6.94 -1.407,10.448 -0.649,7.035 -0.765,14.183 -0.328,21.356 0.503,7.162 1.557,14.345 3.216,21.448 1.697,7.089 3.994,14.09 6.939,20.851 5.863,13.531 14.254,26.114 24.571,36.791 10.306,10.696 22.431,19.516 35.428,26.228 1.625,0.845 3.263,1.65 4.91,2.439 l 2.5,1.155 1.161,0.517 1.331,0.571 c 3.407,1.441 6.813,2.75 10.299,3.933 6.956,2.379 14.115,4.175 21.369,5.468 7.259,1.262 14.622,1.963 22.002,2.108 7.378,0.113 14.772,-0.303 22.094,-1.311 14.645,-2.01 28.993,-6.275 42.416,-12.607 13.419,-6.332 25.919,-14.716 36.91,-24.82 5.491,-5.054 10.631,-10.507 15.302,-16.349 2.339,-2.919 4.575,-5.918 6.698,-8.998 2.112,-3.087 4.109,-6.253 5.988,-9.486 7.538,-12.935 13.064,-26.941 16.519,-41.439 3.41,-14.51 4.703,-29.505 3.702,-44.236 -0.974,-14.737 -4.139,-29.216 -9.326,-42.753 -5.158,-13.55 -12.36,-26.135 -21.094,-37.248 -17.489,-22.22 -41.56,-38.249 -67.239,-44.676 11.319,6.95 21.595,15.051 30.488,24.27 8.877,9.229 16.418,19.482 22.373,30.463 11.988,21.916 17.664,46.59 16.806,70.542 -0.443,11.979 -2.459,23.777 -6.044,35.016 -3.536,11.248 -8.619,21.961 -14.915,31.69 -12.602,19.486 -30.514,35.045 -51.141,44.688 -20.607,9.691 -43.825,13.398 -66.424,10.466 -5.656,-0.702 -11.262,-1.868 -16.798,-3.38 -2.762,-0.751 -5.528,-1.629 -8.216,-2.579 l -0.95,-0.338 -1.112,-0.417 -2.022,-0.76 c -1.353,-0.53 -2.701,-1.071 -4.033,-1.644 -10.659,-4.575 -20.66,-10.54 -29.513,-18.021 -8.848,-7.471 -16.58,-16.41 -22.734,-26.609 C 9.017,105.707 6.318,100.313 4.035,94.676 1.715,89.052 -0.156,83.171 -1.578,77.118 -3.069,71.076 -4.083,64.846 -4.69,58.518 -5.017,55.363 -5.229,52.173 -5.33,48.962 -5.381,47.357 -5.407,45.747 -5.401,44.133 -5.413,42.52 -5.404,40.897 -5.358,39.278 -5.001,26.297 -3.061,13.15 0,0"
               inkscape:connector-curvature="0" />
          </g>
          <g
             transform="translate(466.9995,247.8677)"
             id="g3011"
             style="fill:#cccccc">
            <path
               id="path3013"
               style="fill:#cccccc;fill-opacity:1;fill-rule:nonzero;stroke:none"
               d="m 0,0 c -54.239,0 -98.368,-44.128 -98.368,-98.367 0,-54.24 44.129,-98.368 98.368,-98.368 54.24,0 98.369,44.128 98.369,98.368 C 98.369,-44.128 54.24,0 0,0 m 0,-231.868 c -73.612,0 -133.5,59.889 -133.5,133.501 0,73.612 59.888,133.499 133.5,133.499 73.613,0 133.5,-59.887 133.5,-133.499 l 0,-133.501 -36.056,0 10e-4,42.342 C 73.069,-215.569 38.403,-231.868 0,-231.868"
               inkscape:connector-curvature="0" />
          </g>
          <g
             transform="translate(906.4551,16)"
             id="g3015"
             style="fill:#cccccc">
            <path
               id="path3017"
               style="fill:#cccccc;fill-opacity:1;fill-rule:nonzero;stroke:none"
               d="m 0,0 -33.673,0 -10e-4,139.042 c 0,51.989 -42.294,94.284 -94.282,94.284 -51.986,0 -94.282,-42.295 -94.282,-94.284 l 0,-139.042 -33.674,0 0,139.042 c 0,70.558 57.401,127.957 127.956,127.957 C -57.4,266.999 0,209.6 0,139.042 L 0,0 z"
               inkscape:connector-curvature="0" />
          </g>
          <path
             id="path3019"
             style="fill:#cccccc;fill-opacity:1;fill-rule:nonzero;stroke:none"
             d="m 989.132,274.099 -35.599,0 0,-258.099 35.599,0 0,258.099 z"
             inkscape:connector-curvature="0" />
          <g
             transform="translate(1263.25,55.1025)"
             id="g3021"
             style="fill:#cccccc">
            <path
               id="path3023"
               style="fill:#cccccc;fill-opacity:1;fill-rule:nonzero;stroke:none"
               d="m 0,0 c -52.052,-52.051 -136.745,-52.052 -188.797,-0.001 -52.052,52.052 -52.052,136.747 0,188.797 52.051,52.051 136.744,52.05 188.797,-0.002 l -25.173,-25.172 c -38.173,38.171 -100.281,38.172 -138.452,0.002 -38.171,-38.171 -38.171,-100.281 0.001,-138.452 38.17,-38.17 100.28,-38.17 138.452,10e-4 L 0,0 z"
               inkscape:connector-curvature="0" />
          </g>
          <g
             transform="translate(1549.833,247.3999)"
             id="g3025"
             style="fill:#cccccc">
            <path
               id="path3027"
               style="fill:#cccccc;fill-opacity:1;fill-rule:nonzero;stroke:none"
               d="m 0,0 c -53.982,0 -97.902,-43.918 -97.902,-97.899 0,-53.983 43.92,-97.9 97.902,-97.9 53.979,0 97.896,43.917 97.896,97.9 C 97.896,-43.918 53.979,0 0,0 m 0,-231.4 c -73.614,0 -133.501,59.889 -133.501,133.501 C -133.501,-24.288 -73.614,35.6 0,35.6 73.61,35.6 133.499,-24.288 133.499,-97.899 133.499,-171.511 73.61,-231.4 0,-231.4"
               inkscape:connector-curvature="0" />
          </g>
          <g
             transform="translate(1345.1309,274.0981)"
             id="g3029"
             style="fill:#cccccc">
            <path
               id="path3031"
               style="fill:#cccccc;fill-opacity:1;fill-rule:nonzero;stroke:none"
               d="m 0,0 -35.599,0 0,-258.098 69.716,0 0,35.598 L 0,-222.5 0,0 z"
               inkscape:connector-curvature="0" />
          </g>
          <g
             transform="translate(1720.4131,274.0991)"
             id="g3033"
             style="fill:#cccccc">
            <path
               id="path3035"
               style="fill:#cccccc;fill-opacity:1;fill-rule:nonzero;stroke:none"
               d="m 0,0 33.675,0 0,-130.145 c 0,-51.984 42.293,-94.281 94.28,-94.281 51.987,0 94.282,42.297 94.282,94.281 l 0,130.145 33.673,0 0,-130.145 c 0,-70.554 -57.399,-127.954 -127.955,-127.954 C 57.4,-258.099 0,-200.699 0,-130.145 L 0,0 z"
               inkscape:connector-curvature="0" />
          </g>
          <g
             transform="translate(2256.3672,149.5005)"
             id="g3037"
             style="fill:#cccccc">
            <path
               id="path3039"
               style="fill:#cccccc;fill-opacity:1;fill-rule:nonzero;stroke:none"
               d="m 0,0 c 0,54.239 -44.13,98.369 -98.369,98.369 -54.241,0 -98.367,-44.13 -98.367,-98.369 0,-54.241 44.126,-98.368 98.367,-98.368 C -44.13,-98.368 0,-54.241 0,0 m -0.925,91.158 0,0 0,42.342 36.055,0 0,-133.5 c 0,-73.613 -59.887,-133.5 -133.499,-133.5 -73.613,0 -133.502,59.887 -133.502,133.5 0,73.609 59.889,133.5 133.502,133.5 38.4,0 73.068,-16.3 97.444,-42.342"
               inkscape:connector-curvature="0" />
          </g>
        </g>
      </g>
    </g>
  </g>
</svg>
