<?xml version="1.0" encoding="utf-8"?>
<!-- Generator: Adobe Illustrator 15.0.0, SVG Export Plug-In . SVG Version: 6.00 Build 0)  -->
<!DOCTYPE svg PUBLIC "-//W3C//DTD SVG 1.1//EN" "http://www.w3.org/Graphics/SVG/1.1/DTD/svg11.dtd">
<svg version="1.1" id="图层_1" xmlns="http://www.w3.org/2000/svg" xmlns:xlink="http://www.w3.org/1999/xlink" x="0px" y="0px"
	 width="800px" height="800px" viewBox="0 0 800 800" enable-background="new 0 0 800 800" xml:space="preserve">
<g>
	<path fill="#336600" d="M96.615,588.333c25.388,21.594,51.494,41.405,78.862,57.87c3.425,2.045,6.873,4.034,10.34,5.959
		c3.445,1.956,6.901,3.865,10.387,5.697c6.969,3.661,14.013,7.072,21.124,10.182c14.162,6.319,28.555,11.57,43.056,15.34
		c28.926,7.785,58.092,9.998,85.564,5.797c13.744-2.098,27.063-5.737,39.857-10.77c12.789-5.072,25.061-11.5,36.745-19.144
		c11.691-7.633,22.813-16.434,33.36-26.165c10.361-9.455,19.512-19.669,27.737-30.636c16.321-21.954,28.281-46.813,35.006-72.952
		c3.368-13.057,5.523-26.402,6.259-39.794c0.837-13.384,0.284-26.81-1.552-39.999c-1.768-13.204-4.955-26.155-9.311-38.653
		c-4.313-12.521-9.988-24.523-16.729-35.898c-3.361-5.694-7.022-11.219-10.959-16.555c-1.97-2.667-4.008-5.288-6.114-7.858
		l-1.45-1.752l-1.76-2.071l-1.412-1.631l-1.561-1.742c-8.38-9.238-17.945-17.263-28.306-24.151
		c-20.76-13.715-45.149-22.233-70.446-24.708c-25.281-2.433-51.365,1.102-75.399,10.788c-12.048,4.772-23.563,11.1-34.349,18.755
		c-1.355,0.969-2.667,1.913-4.03,2.955l-1.805,1.377l-1.844,1.47c-2.441,1.981-4.812,4.058-7.106,6.223
		c-4.592,4.325-8.926,8.971-12.875,13.971c-15.865,19.915-26.089,45.185-28.039,71.683c-2.031,26.478,4.484,53.945,19.711,77.591
		c7.505,11.913,17.078,22.459,28.297,31.246c11.203,8.811,24.214,15.484,38.284,19.584c14.075,3.981,29.289,5.256,44.564,3.009
		c15.315-2.104,30.547-7.808,44.831-16.267c-10.842,12.742-24.863,23.246-40.905,30.293c-16.046,6.967-34.075,10.389-52.237,9.57
		c-18.198-0.637-36.398-5.536-53.256-13.646c-16.877-8.123-32.237-19.831-45.377-33.702c-13.121-13.914-24.073-30.495-31.911-48.709
		c-7.868-18.201-12.638-37.991-14.032-58.095c-1.456-20.116,0.464-40.532,5.416-60.229c5.027-19.67,13.045-38.674,23.885-55.962
		c5.405-8.649,11.44-16.924,18.105-24.648c3.334-3.859,6.809-7.597,10.419-11.194l2.73-2.675l2.846-2.678
		c1.756-1.638,3.625-3.3,5.465-4.913c14.847-12.928,31.415-23.987,49.097-32.854c35.414-17.674,75.336-26.263,115.091-24.493
		c39.754,1.6,79.447,13.56,114.074,35.04c17.336,10.679,33.264,23.84,47.367,38.734l2.619,2.819l2.693,2.995l2.282,2.618l2.521,3
		c3.149,3.798,6.209,7.684,9.172,11.648c5.928,7.932,11.471,16.19,16.584,24.733c10.22,17.094,18.586,35.387,25.038,54.338
		c6.415,18.969,10.762,38.646,13.107,58.519c2.271,19.886,2.452,39.979,0.634,59.827c-1.926,19.839-5.798,39.442-11.674,58.357
		c-11.761,37.824-31.32,72.902-56.812,102.1c-12.658,14.632-26.9,27.858-41.914,39.314c-14.768,11.251-30.613,21.388-47.453,29.874
		c-16.826,8.49-34.654,15.299-53.059,19.895c-18.402,4.609-37.344,6.991-56.12,6.998c-18.782,0.039-37.361-2.327-55.177-6.628
		c-8.907-2.185-17.63-4.839-26.139-7.899c-8.498-3.104-16.769-6.627-24.813-10.483c-16.043-7.847-31.142-17.024-45.277-27.224
		c-14.041-10.358-27.293-21.454-39.447-33.564C134.673,644.115,113.807,617.194,96.615,588.333z"/>
	<path fill="#003300" d="M76.829,556.861c-18.128-30.531-31.997-64.221-40.867-99.817c-2.261-8.893-4.178-17.911-5.696-27.032
		c-1.555-9.118-2.803-18.331-3.712-27.619c-1.714-18.579-2.021-37.445-0.867-56.392c1.328-18.917,4.11-37.895,8.492-56.656
		c4.483-18.722,10.551-37.218,18.331-55.075c15.486-35.74,37.648-68.975,64.9-97.176c27.222-28.253,59.249-51.552,93.581-69.28
		c4.286-2.232,8.616-4.36,12.965-6.442l6.604-3.053l3.065-1.364l3.515-1.506c9.001-3.81,17.998-7.266,27.208-10.392
		c18.371-6.278,37.28-11.027,56.439-14.441c19.174-3.332,38.623-5.186,58.114-5.57c19.496-0.294,39.029,0.805,58.369,3.465
		c38.68,5.309,76.581,16.576,112.033,33.301c35.446,16.723,68.462,38.871,97.49,65.559c14.505,13.348,28.083,27.753,40.42,43.185
		c6.175,7.707,12.084,15.631,17.691,23.765c5.579,8.156,10.854,16.519,15.817,25.057c19.907,34.167,34.504,71.16,43.631,109.457
		c9.008,38.326,12.42,77.919,9.778,116.849c-2.571,38.926-10.934,77.168-24.632,112.923c-13.626,35.79-32.647,69.03-55.716,98.388
		c-46.195,58.688-109.776,101.03-177.6,118.006c29.895-18.364,57.037-39.749,80.529-64.105
		c23.444-24.376,43.365-51.464,59.095-80.463c31.662-57.888,46.657-123.062,44.39-186.328c-1.17-31.642-6.491-62.822-15.969-92.498
		c-9.334-29.709-22.761-58.006-39.394-83.703c-33.286-51.472-80.595-92.566-135.079-118.038
		c-54.432-25.599-115.76-35.391-175.458-27.646c-14.938,1.856-29.747,4.938-44.368,8.93c-7.293,1.988-14.603,4.306-21.701,6.812
		l-2.511,0.896l-2.935,1.099l-5.344,2.011c-3.573,1.398-7.134,2.827-10.653,4.339c-28.152,12.085-54.568,27.841-77.951,47.599
		c-23.372,19.734-43.793,43.346-60.048,70.285c-8.141,13.451-15.271,27.699-21.302,42.584
		c-6.126,14.855-11.068,30.391-14.823,46.376c-3.939,15.962-6.62,32.404-8.221,49.116c-0.865,8.355-1.424,16.785-1.692,25.265
		c-0.133,4.24-0.202,8.493-0.19,12.752c-0.027,4.267-0.005,8.546,0.116,12.829C63.622,487.401,68.743,522.123,76.829,556.861z"/>
</g>
</svg>
