<?xml version="1.0" encoding="utf-8"?>
<!-- Generator: Adobe Illustrator 19.0.0, SVG Export Plug-In . SVG Version: 6.00 Build 0)  -->
<svg version="1.1" xmlns="http://www.w3.org/2000/svg" xmlns:xlink="http://www.w3.org/1999/xlink" x="0px" y="0px"
	 viewBox="0 0 1810 300" style="enable-background:new 0 0 1810 300;" xml:space="preserve">
<style type="text/css">
	.st0{fill:#889091;}
	.st1{fill:#EEEEEE;}
	.st2{fill:#AAAAAA;}
</style>
<g id="Layer_2">
</g>
<g id="图层_1">
	<line class="st0" x1="78.8" y1="284.8" x2="78.8" y2="284.8"/>
	<path class="st0" d="M280.7,62.8"/>
	<path class="st0" d="M280.7,62.8"/>
	<line class="st0" x1="66.4" y1="22.9" x2="66.4" y2="22.9"/>
	<path class="st0" d="M66.4,22.9"/>
	<path class="st0" d="M288.3,224.7"/>
	<g>
		<path class="st1" d="M262.2,247.1c-0.6,0.7-1.3,1.5-1.9,2.2C261,248.5,261.6,247.8,262.2,247.1z"/>
		<path class="st1" d="M258.3,251.4c0.7-0.7,1.3-1.4,2-2.1C259.7,250,259,250.7,258.3,251.4z"/>
		<path class="st1" d="M101.1,256.8c-46-41.9-49.4-113.1-7.6-159.2c41.9-46,113.1-49.4,159.2-7.6c45.3,41.2,49.3,110.9,9.5,157
			C315,186.7,310,95,250.4,40.9C190.2-13.9,96.9-9.5,42.1,50.8C-12.7,111-8.3,204.3,52,259.1c59.5,54.2,151.3,50.5,206.4-7.8
			C216.2,295.4,146.4,298,101.1,256.8z"/>
	</g>
	<g>
		<path class="st1" d="M842.5,241.6c0,4.9-1.5,9-4.6,12.5c-3.1,3.4-7.4,5.1-12.9,5.1c-5.5,0-9.8-1.7-12.9-5.1
			c-3.1-3.4-4.6-7.6-4.6-12.5c0-4.9,1.5-9,4.6-12.5c3.1-3.4,7.4-5.1,12.9-5.1c5.5,0,9.8,1.7,12.9,5.1
			C841,232.6,842.5,236.7,842.5,241.6z"/>
		<path class="st1" d="M825,266.7c-9.6,0-15.4-4.1-18.5-7.6c-4.4-4.8-6.6-10.7-6.6-17.5c0-6.8,2.2-12.7,6.6-17.5
			c3.1-3.5,8.9-7.6,18.5-7.6c9.6,0,15.4,4.1,18.5,7.6c4.4,4.8,6.6,10.7,6.6,17.5c0,6.8-2.2,12.7-6.6,17.5
			C840.3,262.5,834.6,266.7,825,266.7z M825,231.5c-4.5,0-6.3,1.5-7.4,2.6c-1.8,2-2.7,4.4-2.7,7.4c0,3,0.9,5.4,2.7,7.4
			c1,1.1,2.9,2.6,7.4,2.6c4.5,0,6.3-1.5,7.4-2.6c1.8-2,2.7-4.4,2.7-7.4c0-3-0.9-5.4-2.7-7.4C831.3,233.1,829.4,231.5,825,231.5z"/>
	</g>
	<g>
		<path class="st1" d="M963.3,266.6c-14.3,0-27.5-2.6-39.7-7.7c-12.2-5.1-22.9-12.6-31.9-22.3c-9-9.8-16.2-21.9-21.4-36.2
			c-5.2-14.4-7.8-30.8-7.8-49.3c0-18.5,2.8-35,8.5-49.3c5.6-14.4,13.1-26.4,22.5-36.2c9.4-9.8,20.2-17.2,32.6-22.2
			c12.3-5,25.2-7.5,38.6-7.5c8.3,0,15.9,0.5,22.7,1.6c6.8,1.1,12.8,2.4,17.9,4c5.1,1.6,9.5,3.2,13.1,4.8c3.6,1.6,6.4,3,8.3,4.3
			l-7,18.8c-5.3-3.2-12.1-6.3-20.3-9.4c-8.2-3.1-18.4-4.6-30.5-4.6c-13.8,0-25.9,2.3-36.2,7c-10.3,4.7-19,11.3-26,19.8
			c-7,8.5-12.3,18.6-15.8,30.3c-3.5,11.7-5.3,24.7-5.3,38.9c0,14.7,1.8,27.9,5.3,39.7c3.5,11.8,8.7,21.9,15.5,30.2
			c6.8,8.3,15.2,14.7,25.1,19.2c9.9,4.5,21.2,6.7,34,6.7c14,0,25.8-1.3,35.3-4c9.5-2.7,16.7-5.4,21.5-8.1l6.1,18.5
			c-1.5,1.1-4,2.3-7.7,3.7c-3.6,1.4-8.2,2.8-13.7,4.3c-5.5,1.5-11.9,2.7-19.2,3.7C980.3,266.1,972.3,266.6,963.3,266.6z"/>
		<path class="st1" d="M963.3,274.1c-15.2,0-29.5-2.8-42.6-8.2c-13.2-5.5-24.8-13.6-34.5-24.2c-9.7-10.5-17.4-23.5-22.9-38.8
			c-5.5-15.1-8.3-32.6-8.3-51.9c0-19.4,3-36.9,9-52.1c6-15.2,14.1-28.2,24.1-38.7c10.1-10.5,21.9-18.6,35.2-24
			c13.2-5.3,27.1-8.1,41.4-8.1c8.6,0,16.6,0.6,23.8,1.7c7.2,1.1,13.5,2.6,19,4.2c5.3,1.7,10,3.4,13.9,5.1c4.1,1.8,7.1,3.4,9.4,4.9
			l4.9,3.3l-12.3,32.9l-7.7-4.6c-4.9-2.9-11.3-5.9-19.1-8.8c-7.3-2.8-16.7-4.1-27.8-4.1c-12.7,0-23.8,2.1-33.1,6.4
			c-9.2,4.2-17.1,10.2-23.3,17.7c-6.3,7.7-11.2,17-14.4,27.7c-3.3,11-5,23.3-5,36.8c0,13.9,1.7,26.5,5,37.6
			c3.2,10.8,8,20.1,14.1,27.5c6,7.4,13.6,13.1,22.4,17.1c8.9,4,19.3,6,30.9,6c13.3,0,24.5-1.2,33.2-3.7c8.8-2.5,15.5-5,19.9-7.4
			l8-4.5l10.6,32.4l-4.5,3.2c-2.1,1.5-5,2.9-9.4,4.6c-3.8,1.5-8.7,3-14.5,4.5c-5.8,1.6-12.6,2.9-20.1,3.9
			C981,273.6,972.5,274.1,963.3,274.1z M964.6,43.3c-12.4,0-24.4,2.3-35.8,7c-11.3,4.6-21.4,11.4-30,20.4
			c-8.6,9-15.7,20.4-20.9,33.8c-5.3,13.4-7.9,29.1-7.9,46.6c0,17.6,2.5,33.3,7.4,46.8c4.9,13.4,11.5,24.7,19.8,33.7
			c8.3,9,18.1,15.9,29.3,20.5c11.3,4.7,23.7,7.1,36.9,7.1c8.6,0,16.4-0.5,23.3-1.4c6.9-0.9,13-2.1,18.2-3.5c5.3-1.4,9.6-2.8,13-4.1
			c0.4-0.2,0.8-0.3,1.2-0.5l-1.4-4.3c-4.2,1.7-9.2,3.3-15,5c-10.1,2.8-22.6,4.3-37.3,4.3c-13.8,0-26.3-2.5-37.1-7.4
			c-10.9-4.9-20.3-12.1-27.8-21.2c-7.4-9-13.1-20.1-16.9-32.8c-3.7-12.5-5.6-26.5-5.6-41.9c0-14.9,1.9-28.8,5.6-41.1
			c3.8-12.6,9.6-23.7,17.2-32.9c7.7-9.4,17.4-16.7,28.7-21.9c11.3-5.1,24.5-7.7,39.3-7.7c13,0,24.1,1.7,33.1,5.1
			c5,1.9,9.6,3.8,13.6,5.8l1.8-4.7c-0.6-0.3-1.3-0.6-2-0.9c-3.4-1.5-7.5-3-12.3-4.5c-4.7-1.5-10.4-2.7-16.8-3.7
			C979.7,43.8,972.5,43.3,964.6,43.3z"/>
	</g>
	<g>
		<path class="st1" d="M1130,243v18.8h-58.2V33.5h21.7V243H1130z"/>
		<path class="st1" d="M1137.5,269.3h-73.2V26h36.7v209.4h36.4V269.3z M1079.4,254.3h43.2v-3.8h-36.4V41h-6.7V254.3z"/>
	</g>
	<g>
		<path class="st1" d="M1371,151c0,18.9-2.8,35.7-8.3,50.1c-5.5,14.5-13,26.6-22.5,36.2c-9.5,9.7-20.5,17-33,21.9
			c-12.6,4.9-25.9,7.3-39.9,7.3c-14,0-27.4-2.4-39.9-7.3c-12.6-4.9-23.6-12.2-33-21.9c-9.5-9.7-17-21.8-22.5-36.2
			c-5.5-14.5-8.3-31.2-8.3-50.1c0-18.9,2.8-35.6,8.3-50c5.5-14.4,13-26.4,22.5-36.1c9.5-9.7,20.5-17,33-21.9
			c12.6-4.9,25.9-7.3,39.9-7.3c14,0,27.3,2.4,39.9,7.3c12.6,4.9,23.6,12.2,33,21.9c9.5,9.7,17,21.7,22.5,36.1
			C1368.2,115.4,1371,132.1,1371,151z M1348,151c0-14.9-1.9-28.3-5.7-40.1c-3.8-11.8-9.3-21.9-16.3-30.2c-7-8.3-15.5-14.6-25.4-19
			c-9.9-4.4-21-6.5-33.4-6.5c-12.3,0-23.5,2.2-33.4,6.5c-9.9,4.4-18.4,10.7-25.4,19c-7,8.3-12.5,18.4-16.3,30.2
			c-3.8,11.8-5.7,25.2-5.7,40.1c0,14.9,1.9,28.3,5.7,40.1c3.8,11.8,9.3,21.9,16.3,30.2c7,8.3,15.5,14.7,25.4,19.2
			c9.9,4.5,21,6.7,33.4,6.7c12.3,0,23.5-2.2,33.4-6.7c9.9-4.5,18.4-10.9,25.4-19.2s12.5-18.4,16.3-30.2
			C1346.1,179.3,1348,165.9,1348,151z"/>
		<path class="st1" d="M1267.2,274.1c-14.9,0-29.3-2.6-42.6-7.9c-13.5-5.3-25.5-13.2-35.7-23.6c-10.1-10.4-18.3-23.4-24.1-38.8
			c-5.8-15.3-8.8-33-8.8-52.8c0-19.8,3-37.5,8.8-52.7c5.9-15.3,14-28.2,24.1-38.6c10.2-10.4,22.2-18.3,35.7-23.6
			c13.4-5.2,27.7-7.9,42.6-7.9c14.9,0,29.3,2.6,42.6,7.9c13.5,5.3,25.5,13.2,35.7,23.6c10.1,10.4,18.3,23.4,24.1,38.6
			c5.8,15.2,8.8,32.9,8.8,52.7c0,19.8-3,37.5-8.8,52.8c-5.9,15.4-14,28.4-24.2,38.8c-10.2,10.4-22.2,18.4-35.7,23.6
			C1296.5,271.4,1282.1,274.1,1267.2,274.1z M1267.2,43.3c-13,0-25.6,2.3-37.2,6.8c-11.5,4.5-21.7,11.3-30.4,20.1
			c-8.7,8.9-15.7,20.2-20.9,33.5c-5.2,13.4-7.8,29.3-7.8,47.3c0,17.9,2.6,33.9,7.8,47.4c5.1,13.4,12.2,24.8,20.9,33.7
			c8.7,8.9,18.9,15.6,30.4,20.1c11.6,4.5,24.1,6.8,37.2,6.8c13,0,25.5-2.3,37.2-6.8c11.5-4.5,21.7-11.3,30.4-20.1
			c8.7-8.9,15.7-20.2,20.9-33.7c5.2-13.5,7.8-29.5,7.8-47.4c0-17.9-2.6-33.8-7.8-47.3c-5.1-13.3-12.2-24.6-20.9-33.5
			c-8.7-8.9-18.9-15.6-30.4-20.1C1292.8,45.6,1280.3,43.3,1267.2,43.3z M1267.2,254.6c-13.4,0-25.6-2.5-36.4-7.4
			c-10.9-4.9-20.3-12-28-21.1c-7.6-9-13.6-20-17.7-32.7c-4.1-12.5-6.1-26.8-6.1-42.4c0-15.6,2.1-29.9,6.1-42.4
			c4.1-12.7,10.1-23.7,17.7-32.7c7.7-9.1,17.2-16.2,28.1-21c10.8-4.8,23.1-7.2,36.4-7.2c13.3,0,25.6,2.4,36.4,7.2
			c10.9,4.8,20.4,11.9,28.1,21c7.6,9,13.6,20,17.7,32.7c4.1,12.5,6.1,26.8,6.1,42.4c0,15.6-2.1,29.9-6.1,42.4
			c-4.1,12.7-10.1,23.7-17.7,32.7c-7.7,9.1-17.1,16.2-28,21.1C1292.8,252.1,1280.6,254.6,1267.2,254.6z M1267.2,62.7
			c-11.2,0-21.4,2-30.3,5.9c-8.8,3.9-16.4,9.6-22.7,17c-6.4,7.5-11.4,16.8-14.9,27.6c-3.6,11-5.4,23.7-5.4,37.8
			c0,14,1.8,26.7,5.4,37.8c3.5,10.8,8.5,20.1,14.9,27.6c6.3,7.4,13.9,13.2,22.7,17.2c8.9,4,19.1,6,30.3,6c11.2,0,21.4-2,30.3-6
			c8.8-4,16.5-9.8,22.7-17.2c6.4-7.5,11.4-16.8,14.9-27.6c3.6-11,5.4-23.7,5.4-37.8c0-14-1.8-26.7-5.4-37.8
			c-3.5-10.8-8.5-20.1-14.9-27.6c-6.2-7.4-13.9-13.1-22.7-17C1288.7,64.7,1278.5,62.7,1267.2,62.7z"/>
	</g>
	<g>
		<g>
			<path class="st1" d="M1799.8,255.5c-7.5,2.6-17.1,5.1-28.8,7.4c-11.7,2.3-26.5,3.5-44.4,3.5c-14.8,0-28.2-2.4-40.3-7.2
				c-12.1-4.8-22.4-11.7-31.1-20.8c-8.7-9.1-15.4-20.1-20.2-33.1c-4.8-13-7.2-27.6-7.2-44c0-15.3,2-29.4,6-42.2
				c4-12.8,9.9-23.9,17.7-33.3c7.8-9.3,17.3-16.6,28.6-21.8c11.3-5.2,24.2-7.8,38.7-7.8c13.2,0,24.7,1.9,34.4,5.6
				c9.7,3.8,16.8,7.3,21.2,7.6V33h25.3V255.5z M1774.5,97.1c-2.3-1.8-5.3-3.8-8.8-5.8c-3.5-2.1-7.6-4-12.3-5.8
				c-4.7-1.8-9.7-3.3-15.2-4.5c-5.4-1.2-11.2-1.8-17.1-1.8c-12.5,0-22.9,2.2-31.3,6.6c-8.4,4.4-15.2,10.3-20.4,17.7
				c-5.2,7.4-9,16.1-11.3,26.1c-2.3,10-3.5,20.6-3.5,31.7c0,26.5,6.6,46.8,19.8,60.9c13.2,14.1,30.7,21.2,52.5,21.2
				c12.5,0,22.5-0.6,30.2-1.8c7.6-1.2,13.4-2.4,17.3-3.7V97.1z"/>
			<path class="st1" d="M1726.6,273.9c-15.7,0-30.2-2.6-43.1-7.7c-13-5.2-24.4-12.8-33.8-22.6c-9.4-9.8-16.7-21.8-21.9-35.7
				c-5.1-13.7-7.7-29.4-7.7-46.6c0-16,2.1-31,6.4-44.5c4.3-13.7,10.7-25.8,19.1-35.8c8.5-10.2,19-18.2,31.2-23.8
				c12.2-5.6,26.3-8.5,41.9-8.5c14.1,0,26.6,2.1,37.1,6.1c3,1.2,5.7,2.3,8.1,3.3c1,0.4,1.9,0.8,2.9,1.2V25.5h40.3v235.4l-5.1,1.7
				c-7.8,2.7-17.8,5.3-29.8,7.7C1760.4,272.7,1744.9,273.9,1726.6,273.9z M1718.8,63.8c-13.4,0-25.3,2.4-35.6,7.1
				c-10.2,4.7-19,11.4-26,19.8c-7.1,8.5-12.6,18.9-16.3,30.7c-3.8,12-5.7,25.5-5.7,40c0,15.4,2.3,29.3,6.7,41.4
				c4.4,12,10.7,22.2,18.6,30.5c7.9,8.3,17.5,14.7,28.5,19c11.1,4.4,23.7,6.7,37.5,6.7c17.3,0,31.8-1.1,42.9-3.4
				c8.8-1.8,16.4-3.6,22.8-5.5V40.5H1782v37.1l-8-0.6c-4.3-0.3-9-2.3-15.6-5c-2.3-1-5-2.1-7.8-3.2
				C1741.7,65.5,1731.1,63.8,1718.8,63.8z M1727,251c-23.9,0-43.4-7.9-58-23.6c-14.5-15.5-21.9-37.7-21.9-66
				c0-11.7,1.2-22.9,3.7-33.4c2.5-10.9,6.7-20.5,12.5-28.7c5.8-8.3,13.6-15.1,23.1-20c9.5-5,21.2-7.5,34.8-7.5
				c6.5,0,12.8,0.6,18.7,1.9c5.8,1.2,11.3,2.9,16.3,4.8c5,2,9.5,4.1,13.4,6.4c3.8,2.2,7,4.4,9.5,6.4l2.9,2.3v150l-5.1,1.7
				c-4.3,1.4-10.4,2.8-18.6,4C1750.3,250.3,1739.8,251,1727,251z M1721.2,86.7c-11.2,0-20.5,1.9-27.9,5.8c-7.3,3.8-13.3,9-17.8,15.4
				c-4.6,6.6-8,14.5-10.1,23.5c-2.2,9.4-3.3,19.5-3.3,30c0,24.4,6,43.1,17.8,55.8c11.9,12.7,27.3,18.8,47.1,18.8
				c12,0,21.8-0.6,29-1.7c4.3-0.7,8-1.3,10.9-2V101c-1.5-1-3.2-2.1-5.1-3.2c-3.1-1.8-6.9-3.6-11.2-5.3c-4.3-1.7-9-3.1-14-4.1
				C1731.8,87.3,1726.6,86.7,1721.2,86.7z"/>
		</g>
	</g>
	<g>
		<path class="st2" d="M416.5,34c14.9,0,27.5,2.1,37.8,6.3c10.3,4.2,18.7,10.1,25.1,17.5c6.4,7.4,11.1,16.2,14,26.4
			c2.9,10.2,4.4,21.3,4.4,33.2v142.5c-2.9,0.9-7.1,1.8-12.7,2.8c-5.5,1-11.9,2.1-19.2,3.3c-7.3,1.2-15.4,2.1-24.3,2.8
			c-8.9,0.7-18,1.1-27.3,1.1c-11.9,0-22.9-1.3-33-3.9c-10.1-2.6-18.8-6.8-26.2-12.5c-7.4-5.7-13.3-13-17.5-21.9
			c-4.2-8.9-6.3-19.7-6.3-32.6c0-12.2,2.3-22.7,7-31.5c4.7-8.7,11.2-16,19.7-21.6c8.4-5.7,18.5-9.8,30.2-12.5
			c11.6-2.6,24.3-3.9,38-3.9c4.1,0,8.4,0.2,12.9,0.7c4.5,0.4,8.9,1,13.1,1.7c4.2,0.7,7.9,1.5,10.9,2.2c3.1,0.7,5.2,1.4,6.3,2v-14
			c0-7.9-0.6-15.5-1.7-22.9c-1.2-7.4-3.7-14.1-7.6-20.1c-3.9-6-9.5-10.8-16.6-14.4c-7.1-3.6-16.5-5.5-28.2-5.5
			c-16.6,0-29,1.2-37.1,3.5c-8.2,2.3-14.1,4.2-17.9,5.7l-3.9-24.9c5-2.3,12.6-4.5,22.9-6.6C389.5,35,401.9,34,416.5,34z
			 M419.1,244.6c11.1,0,20.8-0.4,29.1-1.1c8.3-0.7,15.4-1.7,21.2-2.8v-79.5c-3.2-1.5-8.3-3-15.3-4.6c-7-1.6-16.6-2.4-28.8-2.4
			c-7,0-14.3,0.5-21.9,1.5c-7.6,1-14.6,3.2-21,6.6c-6.4,3.4-11.7,7.9-15.7,13.8c-4.1,5.8-6.1,13.5-6.1,23.2c0,8.5,1.4,15.6,4.2,21.4
			c2.8,5.8,6.7,10.5,11.8,14c5.1,3.5,11.2,6,18.4,7.6C402,243.8,410.1,244.6,419.1,244.6z"/>
		<path class="st2" d="M414.3,277.5c-12.5,0-24.3-1.4-34.9-4.2c-11-2.9-20.7-7.5-28.9-13.8c-8.4-6.4-15-14.7-19.7-24.6
			c-4.7-9.8-7.1-21.9-7.1-35.8c0-13.4,2.6-25.2,7.9-35c5.2-9.8,12.7-18,22.1-24.3c9.2-6.2,20.2-10.7,32.7-13.5
			c12.1-2.7,25.5-4.1,39.7-4.1c4.3,0,8.9,0.2,13.6,0.7c4.6,0.4,9.2,1.1,13.7,1.8c3.1,0.5,6,1.1,8.5,1.6v-4.1
			c0-7.4-0.6-14.7-1.7-21.8c-1-6.3-3.2-12.1-6.5-17.1c-3.2-4.9-7.7-8.8-13.8-11.9c-6-3.1-14.4-4.6-24.8-4.6
			c-15.8,0-27.6,1.1-35.1,3.2c-7.9,2.3-13.8,4.1-17.3,5.5l-8.7,3.3l-6.3-39.6l5.1-2.4c5.6-2.6,13.6-4.9,24.7-7.1
			c10.8-2.1,23.9-3.2,38.8-3.2c15.8,0,29.4,2.3,40.6,6.9c11.4,4.7,20.8,11.2,28,19.5c7.1,8.2,12.3,18.1,15.5,29.3
			c3.1,10.8,4.7,22.7,4.7,35.3v148l-5.3,1.6c-3.2,1-7.6,2-13.5,3c-5.5,1-12.1,2.1-19.4,3.3c-7.5,1.2-15.8,2.2-24.8,2.9
			C433.1,277.1,423.7,277.5,414.3,277.5z M426.1,137.2c-13.1,0-25.3,1.3-36.4,3.8c-10.7,2.4-20,6.2-27.6,11.4
			c-7.4,5-13.2,11.3-17.2,18.9c-4.1,7.6-6.1,17-6.1,27.9c0,11.6,1.9,21.5,5.6,29.3c3.7,7.8,8.8,14.2,15.3,19.1
			c6.6,5,14.5,8.8,23.6,11.2c9.4,2.4,19.8,3.7,31.1,3.7c9,0,18-0.4,26.7-1.1c8.6-0.7,16.6-1.6,23.7-2.8c7.2-1.2,13.6-2.2,19-3.2
			c2.5-0.5,4.6-0.9,6.5-1.3V117.5c0-11.2-1.4-21.7-4.1-31.2c-2.6-9.1-6.8-17-12.5-23.6c-5.6-6.5-13.1-11.7-22.3-15.4
			c-9.4-3.8-21.2-5.8-35-5.8c-14,0-26.1,1-35.9,2.9c-6.5,1.3-11.9,2.6-16,4l1.6,10.2c2.8-0.9,6.1-1.9,9.8-2.9
			c8.9-2.5,21.7-3.8,39.2-3.8c12.8,0,23.4,2.1,31.6,6.3c8.3,4.2,14.8,9.9,19.5,17c4.5,6.8,7.5,14.6,8.8,23.1
			c1.2,7.8,1.8,15.9,1.8,24.1v26.1L466,143c0,0-1.1-0.5-4.7-1.4c-2.9-0.7-6.4-1.4-10.5-2.1c-4.1-0.7-8.3-1.3-12.6-1.7
			C434,137.4,429.9,137.2,426.1,137.2z M419.1,252.1c-9.6,0-18.3-0.9-25.9-2.6c-8-1.8-15.1-4.8-21-8.8c-6.2-4.2-11-9.9-14.3-17
			c-3.2-6.8-4.9-15.1-4.9-24.6c0-11.1,2.5-20.4,7.5-27.5c4.8-6.8,10.9-12.2,18.4-16.1c7.2-3.7,15-6.2,23.4-7.3
			c7.9-1.1,15.6-1.6,22.9-1.6c12.9,0,22.9,0.8,30.5,2.6c7.5,1.7,13,3.4,16.7,5.1l4.4,2v90.5l-6,1.2c-6.1,1.2-13.5,2.2-22,3
			C440.4,251.8,430.4,252.1,419.1,252.1z M425.2,161.7c-6.6,0-13.6,0.5-20.9,1.5c-6.7,0.9-12.9,2.8-18.5,5.8
			c-5.4,2.8-9.7,6.5-13.1,11.4c-3.2,4.5-4.8,10.9-4.8,18.9c0,7.3,1.2,13.4,3.4,18.2c2.2,4.7,5.2,8.3,9.3,11
			c4.3,2.9,9.6,5.1,15.8,6.5c6.6,1.5,14.2,2.2,22.6,2.2c10.8,0,20.4-0.4,28.4-1.1c5.3-0.5,10.1-1,14.4-1.7v-68
			c-2.2-0.7-5.3-1.5-9.5-2.5C446,162.4,436.8,161.7,425.2,161.7z"/>
	</g>
	<g>
		<path class="st2" d="M532.1,47.1c8.4-2.3,19.8-5,34.1-7.9c14.3-2.9,31.8-4.4,52.4-4.4c17.2,0,31.5,2.5,43,7.4
			c11.5,5,20.7,12,27.5,21.2c6.8,9.2,11.7,20.2,14.6,33c2.9,12.8,4.4,27,4.4,42.4v122.6h-28.4V148.1c0-16-1.1-29.6-3.3-40.6
			c-2.2-11.1-5.8-20.1-10.9-27.1c-5.1-7-11.8-12-20.1-15.1c-8.3-3.1-18.7-4.6-31.2-4.6c-13.4,0-25,0.7-34.7,2.2
			c-9.8,1.5-16.1,2.8-19,3.9v194.7h-28.4V47.1z"/>
		<path class="st2" d="M715.8,269h-43.4V148.1c0-15.5-1.1-28.6-3.1-39.2c-2-9.9-5.2-18.1-9.6-24.1c-4.2-5.8-9.7-9.9-16.6-12.5
			c-7.4-2.7-17.1-4.1-28.7-4.1c-13,0-24.3,0.7-33.6,2.1c-6,0.9-10,1.6-12.6,2.2V269h-43.4V41.4l5.5-1.5c8.6-2.4,20.2-5,34.6-8
			c14.7-3,32.9-4.5,53.9-4.5c18.1,0,33.6,2.7,46,8c12.7,5.5,23,13.4,30.6,23.6c7.4,10,12.8,22,15.9,35.8c3,13.3,4.6,28.2,4.6,44.1
			V269z M687.4,254h13.4V138.9c0-14.8-1.4-28.5-4.2-40.7c-2.7-11.7-7.2-21.9-13.3-30.2c-6-8.1-14.3-14.4-24.5-18.8
			c-10.5-4.5-24-6.8-40.1-6.8c-20.1,0-37.2,1.4-50.9,4.2c-11.1,2.3-20.6,4.4-28.1,6.3V254H553V61.7l4.7-1.9
			c2.2-0.9,6.8-2.3,20.7-4.4c10.1-1.5,22.2-2.3,35.9-2.3c13.4,0,24.7,1.7,33.8,5.1c9.7,3.6,17.6,9.5,23.6,17.7
			c5.7,7.9,9.8,18,12.2,30.1c2.3,11.5,3.4,25.7,3.4,42.1V254z"/>
	</g>
	<g>
		<path class="st2" d="M774.1,260.6h-28.4V40.2h28.4V260.6z"/>
		<path class="st2" d="M781.6,268.1h-43.4V32.7h43.4V268.1z M753.2,253.1h13.4V47.7h-13.4V253.1z"/>
	</g>
	<g>
		<path class="st1" d="M1587.5,257.1c-8.4,2.3-19.8,5-34.1,7.9c-14.3,2.9-31.8,4.4-52.4,4.4c-17.2,0-31.5-2.5-43-7.4
			c-11.5-5-20.7-12-27.5-21.2c-6.8-9.2-11.7-20.2-14.6-33c-2.9-12.8-4.4-27-4.4-42.4V39h28.4v117.1c0,16,1.1,29.6,3.3,40.6
			c2.2,11.1,5.8,20.1,10.9,27.1c5.1,7,11.8,12,20.1,15.1c8.3,3.1,18.7,4.6,31.2,4.6c13.4,0,25-0.7,34.7-2.2c9.8-1.5,16.1-2.8,19-3.9
			V39h28.4V257.1z"/>
		<path class="st1" d="M1500.9,276.8c-18.1,0-33.6-2.7-46-8c-12.7-5.5-23-13.4-30.6-23.6c-7.4-10-12.8-22-15.9-35.8
			c-3-13.3-4.6-28.2-4.6-44.1V31.5h43.4v124.6c0,15.5,1.1,28.6,3.1,39.2c2,9.9,5.2,18.1,9.6,24.1c4.2,5.8,9.7,9.9,16.6,12.5
			c7.4,2.7,17.1,4.1,28.7,4.1c13,0,24.3-0.7,33.6-2.1c6-0.9,10-1.6,12.6-2.2V31.5h43.4v231.3l-5.5,1.5c-8.6,2.4-20.2,5-34.6,8
			C1540.2,275.3,1522,276.8,1500.9,276.8z M1418.9,46.5v118.8c0,14.8,1.4,28.5,4.2,40.7c2.7,11.7,7.2,21.9,13.3,30.2
			c6,8.1,14.3,14.4,24.5,18.8c10.5,4.5,24,6.8,40.1,6.8c20.1,0,37.2-1.4,50.9-4.2c11.1-2.3,20.6-4.4,28.1-6.3V46.5h-13.4v196
			l-4.7,1.9c-2.2,0.9-6.8,2.3-20.7,4.4c-10.1,1.5-22.2,2.3-35.9,2.3c-13.4,0-24.7-1.7-33.8-5.1c-9.7-3.6-17.6-9.5-23.6-17.7
			c-5.7-7.9-9.8-18-12.2-30.1c-2.3-11.5-3.4-25.7-3.4-42.1V46.5H1418.9z"/>
	</g>
	<g>
		<path class="st2" d="M262.2,247.1c39.8-46.1,35.8-115.8-9.5-157c-29.6-26.9-69.7-35.1-105.6-25.3c20.4,3.5,40,12.7,56.4,27.7
			c46,41.9,49.4,113.1,7.6,159.2c-14.9,16.4-33.6,27.4-53.6,32.9c35.8,6.2,73.9-5,100.8-33.1c0,0,0,0,2-2.1c1.5-1.6,2.9-3.3,4.3-5
			C263.9,245.2,263.1,246.1,262.2,247.1z"/>
	</g>
</g>
</svg>
