<?xml version="1.0" encoding="UTF-8" standalone="no"?>
<svg
   xmlns:dc="http://purl.org/dc/elements/1.1/"
   xmlns:cc="http://creativecommons.org/ns#"
   xmlns:rdf="http://www.w3.org/1999/02/22-rdf-syntax-ns#"
   xmlns:svg="http://www.w3.org/2000/svg"
   xmlns="http://www.w3.org/2000/svg"
   xmlns:sodipodi="http://sodipodi.sourceforge.net/DTD/sodipodi-0.dtd"
   xmlns:inkscape="http://www.inkscape.org/namespaces/inkscape"
   viewBox="0 0 1000 1000"
   height="1000"
   width="1000"
   xml:space="preserve"
   version="1.1"
   id="svg2"
   inkscape:version="0.91 r13725"
   sodipodi:docname="ani_logo.svg"><sodipodi:namedview
     pagecolor="#ffffff"
     bordercolor="#666666"
     borderopacity="1"
     objecttolerance="10"
     gridtolerance="10"
     guidetolerance="10"
     inkscape:pageopacity="0"
     inkscape:pageshadow="2"
     inkscape:window-width="1920"
     inkscape:window-height="1151"
     id="namedview3416"
     showgrid="false"
     inkscape:zoom="0.5"
     inkscape:cx="489.33737"
     inkscape:cy="399.98316"
     inkscape:window-x="0"
     inkscape:window-y="27"
     inkscape:window-maximized="1"
     inkscape:current-layer="g10"
     inkscape:object-paths="true" /><metadata
     id="metadata8"><rdf:RDF><cc:Work
         rdf:about=""><dc:format>image/svg+xml</dc:format><dc:type
           rdf:resource="http://purl.org/dc/dcmitype/StillImage" /><dc:title /></cc:Work></rdf:RDF></metadata><defs
     id="defs6"><clipPath
       id="clipPath16"
       clipPathUnits="userSpaceOnUse"><path
         id="path18"
         d="M 0,800 800,800 800,0 0,0 0,800 Z" /></clipPath></defs><g
     transform="matrix(1.25,0,0,-1.25,0,1000)"
     id="g10"><path
       style="fill:#6c8b1c;fill-opacity:1;fill-rule:nonzero;stroke:none;image-rendering:optimizeQuality;opacity:1"
       d="m 587.52344,197.38477 c -34.11156,-0.01 -68.18358,4.52704 -101.23438,13.55468 69.05693,11.98345 135.64039,43.09405 191.33399,93.74219 156.08375,141.9425 167.54476,383.54055 25.60351,539.62305 -50.64813,55.69404 -113.98552,92.96927 -181.59765,111.4375 122.94031,21.3332 253.7258,-17.96594 344.89062,-115.65821 1.13538,-1.2241 2.27064,-2.44949 3.39649,-3.6875 0.90176,-0.9865 5.71104,-6.34594 3.29882,-3.67578 C 1011.6695,676.54308 999.17685,437.60701 844.3125,296.77344 771.14824,230.23848 679.19489,197.41054 587.52344,197.38477 Z"
       transform="matrix(0.8,0,0,-0.8,0,800)"
       id="path22"
       inkscape:connector-curvature="0"
       sodipodi:nodetypes="scssccccss" /><g
       style="image-rendering:optimizeQuality;opacity:1"
       transform="translate(243.7517,542.09776)"
       id="g24" /><path
       id="path26-3"
       style="fill:#8ec220;fill-opacity:1;fill-rule:nonzero;stroke:none;image-rendering:optimizeQuality;opacity:1"
       d="m 243.7517,542.0977 c -113.554,-124.866 -104.383,-318.144 20.484,-431.698 124.866,-113.5539987 318.144,-104.3829987 431.698,20.484 113.553,124.866 104.383,318.144 -20.484,431.698 -124.867,113.553 -318.14399,104.383 -431.698,-20.484 m 425.371,153.835 c 163.437,-148.63 175.441,-401.612 26.811,-565.049 -148.631,-163.437995 -401.61199,-175.441995 -565.05,-26.811 -163.437996,148.63 -175.441996,401.612 -26.811,565.049 148.63,163.438 401.612,175.442 565.05,26.811"
       inkscape:connector-curvature="0" /></g></svg>