<?xml version="1.0" encoding="UTF-8" standalone="no"?>
<svg
   xmlns:dc="http://purl.org/dc/elements/1.1/"
   xmlns:cc="http://creativecommons.org/ns#"
   xmlns:rdf="http://www.w3.org/1999/02/22-rdf-syntax-ns#"
   xmlns:svg="http://www.w3.org/2000/svg"
   xmlns="http://www.w3.org/2000/svg"
   viewBox="0 0 1000 1000"
   height="1000"
   width="1000"
   xml:space="preserve"
   version="1.1"
   id="svg4207"><metadata
     id="metadata4213"><rdf:RDF><cc:Work
         rdf:about=""><dc:format>image/svg+xml</dc:format><dc:type
           rdf:resource="http://purl.org/dc/dcmitype/StillImage" /><dc:title></dc:title></cc:Work></rdf:RDF></metadata><defs
     id="defs4211"><clipPath
       id="clipPath4221"
       clipPathUnits="userSpaceOnUse"><path
         id="path4223"
         d="M 0,800 800,800 800,0 0,0 0,800 Z" /></clipPath></defs><g
     transform="matrix(1.25,0,0,-1.25,0,1000)"
     id="g4215"><g
       id="g4217"><g
         clip-path="url(#clipPath4221)"
         id="g4219"><g
           transform="translate(611.1978,400.5629)"
           id="g4225"><path
             id="path4227"
             style="fill:#6c8b1c;fill-opacity:1;fill-rule:nonzero;stroke:none"
             d="m 0,0 c -0.45,168.777 -137.635,305.232 -306.411,304.782 -168.777,-0.45 -305.232,-137.635 -304.783,-306.411 0.45,-168.777 137.635,-305.232 306.412,-304.782 C -136.006,-305.961 0.45,-168.776 0,0 m -210.131,-400.559 c -220.912,-0.589 -400.474,178.018 -401.063,398.93 -0.588,220.912 178.019,400.473 398.93,401.062 C 8.648,400.022 188.209,221.415 188.798,0.503 189.387,-220.408 10.78,-399.97 -210.131,-400.559" /></g><g
           transform="translate(188.8018,400.4099)"
           id="g4229"><path
             id="path4231"
             style="fill:#8ec220;fill-opacity:1;fill-rule:nonzero;stroke:none"
             d="M 0,0 C -0.328,-168.777 136.228,-305.863 305.004,-306.19 473.781,-306.518 610.867,-169.962 611.195,-1.186 611.522,167.591 474.967,304.677 306.19,305.004 137.413,305.332 0.328,168.777 0,0 m 211.974,399.587 c 220.912,-0.429 399.649,-179.861 399.221,-400.773 -0.429,-220.912 -179.861,-399.649 -400.773,-399.22 -220.912,0.428 -399.649,179.86 -399.22,400.772 0.428,220.912 179.86,399.649 400.772,399.221" /></g><g
           transform="translate(702.1028,399.7485)"
           id="g4233"><path
             id="path4235"
             style="fill:#236dc1;fill-opacity:1;fill-rule:nonzero;stroke:none"
             d="m 0,0 c 0,-115.98 -94.02,-210 -210,-210 -115.98,0 -210,94.02 -210,210 0,115.98 94.02,210 210,210 C -94.02,210 0,115.98 0,0" /></g><g
           transform="translate(407.9265,207.2995)"
           id="g4237"><path
             id="path4239"
             style="fill:#1e5386;fill-opacity:1;fill-rule:nonzero;stroke:none"
             d="M 0,0 C -46.443,50.765 -74.639,118.222 -74.639,192.449 -74.639,266.602 -46.361,334.15 0,384.898 -74.074,352.452 -125.824,278.494 -125.824,192.449 -125.824,106.404 -74.074,32.446 0,0" /></g></g></g></g></svg>