<?xml version="1.0" encoding="utf-8"?>
<!-- Generator: Adobe Illustrator 19.0.0, SVG Export Plug-In . SVG Version: 6.00 Build 0)  -->
<svg version="1.1" id="Capa_1" xmlns="http://www.w3.org/2000/svg" xmlns:xlink="http://www.w3.org/1999/xlink" x="0px" y="0px"
	 viewBox="149 -59 910 910" style="enable-background:new 149 -59 910 910;" xml:space="preserve">
<g>
	<g>
		<path d="M938.1,390.9h89.9V310c0-16.8-13.7-30.5-30.5-30.5H491.1c1.6,3.3,3.1,6.6,4.6,10c10.2,24.2,15.4,49.9,15.4,76.4
			c0,8.4-0.5,16.8-1.6,25H938.1z"/>
		<path d="M314.9,204.7c-3.4,0-6.7,0.1-10,0.3v185.8H416h58.1c1.3-8.2,1.9-16.5,1.9-25c0-31.8-9.2-61.4-25.1-86.3
			C422.4,234.5,372.1,204.7,314.9,204.7z"/>
		<path d="M179,672.5h89.6l1.3-125.7h668.2l-0.5,125.7h91.4c16.6,0,30-13.4,30-30V426.6l-789.1-0.7l-1.3-306.4H179
			c-16.6,0-30,13.4-30,30v111.7v38.5V432v38.5v172C149,659,162.4,672.5,179,672.5z"/>
	</g>
</g>
</svg>
