<?xml version="1.0" encoding="utf-8"?>
<!-- Generator: Adobe Illustrator 19.0.0, SVG Export Plug-In . SVG Version: 6.00 Build 0)  -->
<svg version="1.1" id="Layer_1" xmlns="http://www.w3.org/2000/svg" xmlns:xlink="http://www.w3.org/1999/xlink" x="0px" y="0px"
	 viewBox="-92 131.5 425.2 531.5" style="enable-background:new -92 131.5 425.2 531.5;" xml:space="preserve">
<style type="text/css">
	.st0{font-family:'Arial-BoldMT';}
	.st1{font-size:5px;}
</style>
<path d="M200.9,447.4l-4-12v-14.8h-3.5c0,15.6,0.1,27.6,0.1,30.2C197.5,450.4,200.9,447.4,200.9,447.4z"/>
<path d="M266.3,282.4c-1.4-27-27-39-41.3-42.3c-11.5-2.7-41.8-3-53.4-3c-3.8-6.8-7-10.3-7.8-11l0-0.1c-15.6-20-39.1-31.4-64.3-31.4
	c-25.2,0-48.6,11.5-64.3,31.4l-0.5,0.6c-1.2,1.3-3.8,4.4-6.7,9.6c-1.5-0.2-3.1-0.2-4.8-0.2c-13.2,0-31.1,4.5-31.2,4.6l-1,0.3
	l0.6,0.9c0.2,0.3,17.5,27.5,21.6,53.7c-0.1,2.8-0.2,5.7-0.2,8.8v162.5c-2.6,1.4-5.3,3.5-5.1,5.9c0.2,1.5,1.5,2.9,4,4l-1.6,1.2v18.7
	c-0.2,0.4,0.5,3,0.5,3H191c0,0,0.6-2.6,0.5-3v-18.7l-2.3-1.8c1.8-1,2.8-2.2,2.9-3.5c0.3-2.6-3-4.9-5.9-6.3v-1.8
	c4.9-2.8,6.4-12.9,6.4-12.9s0-0.2,0-0.6c0-2.6,0-14.6-0.1-30.2c-0.1-36.4-0.2-92.7-0.2-98.3c0-8.3-0.9-29.7,5.3-35.7
	c5.3-5.1,16-7.1,24.8-2.6c11.8,6,12.6,19.3,12.6,19.3s3.3,83,4.7,95.7s8,19.8,18.8,18.8c13.8-1.3,13.9-18.2,13.9-18.2
	S267.1,298.4,266.3,282.4z"/>
<text transform="matrix(1 0 0 1 -92 571.7)" class="st0 st1">Created by John Burraco</text>
<text transform="matrix(1 0 0 1 -92 576.7)" class="st0 st1">from the Noun Project</text>
</svg>
