<?xml version="1.0" encoding="iso-8859-1"?>
<!-- Generator: Adobe Illustrator 17.1.0, SVG Export Plug-In . SVG Version: 6.00 Build 0)  -->
<!DOCTYPE svg PUBLIC "-//W3C//DTD SVG 1.1//EN" "http://www.w3.org/Graphics/SVG/1.1/DTD/svg11.dtd">
<svg version="1.1" id="Capa_1" xmlns="http://www.w3.org/2000/svg" xmlns:xlink="http://www.w3.org/1999/xlink" x="0px" y="0px"
	 viewBox="0 0 297 297" style="enable-background:new 0 0 297 297;" xml:space="preserve">
<g>
	<path d="M172.591,251c-6.903,0-12.5,5.597-12.5,12.5s5.597,12.5,12.5,12.5h13.667v-25H172.591z"/>
	<path d="M249.289,215c1.81,0,3.969,0.116,4.969,0.425V111c0-61.206-49.594-111-110.758-111S32.742,49.794,32.742,111h44
		c0-36.944,29.855-67,66.757-67s66.758,30.056,66.758,67v104.496c2-0.356,4.083-0.496,6.031-0.496H249.289z"/>
	<path d="M264.258,244.946c0-8.284-6.685-14.946-14.969-14.946h-33c-8.284,0-15.031,6.662-15.031,14.946V297h63V244.946z"/>
	<path d="M32.893,182.104c0,12.146,9.851,22,22,22c12.149,0,22-9.854,22-22c0-18.247-22-44.207-22-44.207
		S32.893,163.856,32.893,182.104z"/>
</g>
<g>
</g>
<g>
</g>
<g>
</g>
<g>
</g>
<g>
</g>
<g>
</g>
<g>
</g>
<g>
</g>
<g>
</g>
<g>
</g>
<g>
</g>
<g>
</g>
<g>
</g>
<g>
</g>
<g>
</g>
</svg>
