<?xml version="1.0" encoding="utf-8"?>
<!-- Generator: Adobe Illustrator 16.0.4, SVG Export Plug-In . SVG Version: 6.00 Build 0)  -->
<!DOCTYPE svg PUBLIC "-//W3C//DTD SVG 1.1//EN" "http://www.w3.org/Graphics/SVG/1.1/DTD/svg11.dtd">
<svg version="1.1" xmlns="http://www.w3.org/2000/svg" xmlns:xlink="http://www.w3.org/1999/xlink" x="0px" y="0px"
	 width="90px" height="90px" viewBox="0 0 90 90" enable-background="new 0 0 90 90" xml:space="preserve">
<g>
	<path fill="#FFFFFF" stroke="#31323B" stroke-miterlimit="10" d="M49.16,63.495c0,8.109,6.572,14.684,14.682,14.684
		c8.107,0,14.682-6.574,14.682-14.684c0-0.574,0-36.414,0-36.99c0-8.111-6.574-14.682-14.682-14.682
		c-8.109,0-14.682,6.57-14.682,14.682C49.16,27.081,49.16,62.92,49.16,63.495z"/>
	<g>
		<path fill="#92D13D" stroke="#31323B" stroke-miterlimit="10" d="M40.955,26.51c0,8.109-6.57,14.684-14.678,14.684
			c-8.113,0-14.686-6.574-14.686-14.684s6.572-14.682,14.686-14.682C34.384,11.829,40.955,18.401,40.955,26.51z"/>
		<g>
			<path fill="none" stroke="#FFFFFF" stroke-width="0.932" stroke-linecap="round" stroke-miterlimit="10" d="M23.283,21.729
				c-1.797,1.037-3.01,2.975-3.01,5.197c0,3.314,2.688,6,6,6c3.314,0,6-2.686,6-6c0-2.205-1.193-4.127-2.965-5.17"/>
			
				<line fill="none" stroke="#FFFFFF" stroke-width="0.932" stroke-linecap="round" stroke-miterlimit="10" x1="26.273" y1="25.125" x2="26.273" y2="19.762"/>
		</g>
	</g>
	<g>
		<path fill="#FFFFFF" stroke="#31323B" stroke-miterlimit="10" d="M40.841,63.397c0,8.107-6.57,14.682-14.678,14.682
			c-8.113,0-14.686-6.574-14.686-14.682c0-8.111,6.572-14.684,14.686-14.684C34.271,48.713,40.841,55.286,40.841,63.397z"/>
		<g>
			<path fill="none" stroke="#92D13D" stroke-linecap="round" stroke-linejoin="round" stroke-miterlimit="10" d="M26.159,58.45
				l5.441,5.594c0.357,0.365,0.936,0.365,1.291,0c0.357-0.367,0.357-0.961,0-1.328l-6.732-6.92l-6.732,6.92
				c-0.355,0.367-0.355,0.961,0,1.328c0.355,0.365,0.936,0.365,1.291,0L26.159,58.45z"/>
			<polyline fill="none" stroke="#92D13D" stroke-linecap="round" stroke-linejoin="round" stroke-miterlimit="10" points="
				20.985,63.768 20.985,69.797 24.637,69.797 24.637,65.536 27.682,65.536 27.682,69.797 31.334,69.797 31.334,63.823 			"/>
		</g>
	</g>
	<g>
		<polyline fill="none" stroke="#92D13D" stroke-linecap="round" stroke-linejoin="round" stroke-miterlimit="10" points="
			57.851,29.481 63.851,23.481 69.83,29.459 		"/>
		<polyline fill="none" stroke="#92D13D" stroke-linecap="round" stroke-linejoin="round" stroke-miterlimit="10" points="
			58.011,60.672 63.859,66.52 69.671,60.708 		"/>
	</g>
</g>
</svg>
