<?xml version="1.0" encoding="UTF-8" standalone="no"?>
<svg
   xmlns:dc="http://purl.org/dc/elements/1.1/"
   xmlns:cc="http://creativecommons.org/ns#"
   xmlns:rdf="http://www.w3.org/1999/02/22-rdf-syntax-ns#"
   xmlns:svg="http://www.w3.org/2000/svg"
   xmlns="http://www.w3.org/2000/svg"
   viewBox="0 0 1000 1000"
   height="1000"
   width="1000"
   xml:space="preserve"
   version="1.1"
   id="svg4279"><metadata
     id="metadata4285"><rdf:RDF><cc:Work
         rdf:about=""><dc:format>image/svg+xml</dc:format><dc:type
           rdf:resource="http://purl.org/dc/dcmitype/StillImage" /><dc:title></dc:title></cc:Work></rdf:RDF></metadata><defs
     id="defs4283"><clipPath
       id="clipPath4293"
       clipPathUnits="userSpaceOnUse"><path
         id="path4295"
         d="M 0,800 800,800 800,0 0,0 0,800 Z" /></clipPath></defs><g
     transform="matrix(1.25,0,0,-1.25,0,1000)"
     id="g4287"><g
       id="g4289"><g
         clip-path="url(#clipPath4293)"
         id="g4291"><g
           transform="translate(560,631.7656)"
           id="g4297"><path
             id="path4299"
             style="fill:#c73332;fill-opacity:1;fill-rule:nonzero;stroke:none"
             d="m 0,0 c 0,-88.366 -71.634,-160 -160,-160 -88.366,0 -160,71.634 -160,160 0,88.366 71.634,160 160,160 C -71.634,160 0,88.366 0,0" /></g><g
           transform="translate(400,0)"
           id="g4301"><path
             id="path4303"
             style="fill:#8d3b3c;fill-opacity:1;fill-rule:nonzero;stroke:#802021;stroke-width:180;stroke-linecap:butt;stroke-linejoin:miter;stroke-miterlimit:4;stroke-dasharray:none;stroke-opacity:1"
             d="M 0,0 C -0.2,213.999 -111.343,422.062 -310,536.757" /></g><g
           transform="translate(400,0)"
           id="g4305"><path
             id="path4307"
             style="fill:#4d7589;fill-opacity:1;fill-rule:nonzero;stroke:#c73332;stroke-width:180;stroke-linecap:butt;stroke-linejoin:miter;stroke-miterlimit:4;stroke-dasharray:none;stroke-opacity:1"
             d="M 0,0 C 0.2,213.999 111.343,422.062 310,536.757" /></g><g
           transform="translate(458.3317,482.7343)"
           id="g4309"><path
             id="path4311"
             style="fill:#802021;fill-opacity:1;fill-rule:nonzero;stroke:none"
             d="m 0,0 c -52.371,2.328 -103.903,23.48 -143.893,63.47 -39.95,39.95 -61.106,91.576 -63.47,143.893 C -229.79,149.976 -217.825,82.251 -171.469,35.894 -125.112,-10.462 -57.387,-22.427 0,0" /></g></g></g></g></svg>