<?xml version="1.0" encoding="UTF-8" standalone="no"?>
<svg
   xmlns:dc="http://purl.org/dc/elements/1.1/"
   xmlns:cc="http://creativecommons.org/ns#"
   xmlns:rdf="http://www.w3.org/1999/02/22-rdf-syntax-ns#"
   xmlns:svg="http://www.w3.org/2000/svg"
   xmlns="http://www.w3.org/2000/svg"
   viewBox="0 0 1000 1000"
   height="1000"
   width="1000"
   xml:space="preserve"
   version="1.1"
   id="svg5170"><metadata
     id="metadata5176"><rdf:RDF><cc:Work
         rdf:about=""><dc:format>image/svg+xml</dc:format><dc:type
           rdf:resource="http://purl.org/dc/dcmitype/StillImage" /><dc:title></dc:title></cc:Work></rdf:RDF></metadata><defs
     id="defs5174"><clipPath
       id="clipPath5184"
       clipPathUnits="userSpaceOnUse"><path
         id="path5186"
         d="M 0,800 800,800 800,0 0,0 0,800 Z" /></clipPath><clipPath
       id="clipPath5200"
       clipPathUnits="userSpaceOnUse"><path
         id="path5202"
         d="M 0,800 800,800 800,0 0,0 0,800 Z" /></clipPath><clipPath
       id="clipPath5212"
       clipPathUnits="userSpaceOnUse"><path
         id="path5214"
         d="M 0,800 800,800 800,0 0,0 0,800 Z" /></clipPath><clipPath
       id="clipPath5224"
       clipPathUnits="userSpaceOnUse"><path
         id="path5226"
         d="M 0,800 800,800 800,0 0,0 0,800 Z" /></clipPath><clipPath
       id="clipPath5242"
       clipPathUnits="userSpaceOnUse"><path
         id="path5244"
         d="M 0,800 800,800 800,0 0,0 0,800 Z" /></clipPath><clipPath
       id="clipPath5264"
       clipPathUnits="userSpaceOnUse"><path
         id="path5266"
         d="M 0,800 800,800 800,0 0,0 0,800 Z" /></clipPath></defs><g
     transform="matrix(1.25,0,0,-1.25,0,1000)"
     id="g5178"><g
       id="g5196"><g
         clip-path="url(#clipPath5200)"
         id="g5198"><g
           transform="translate(718.3972,465.4988)"
           id="g5204"><path
             id="path5206"
             style="fill:#f1f1f2;fill-opacity:1;fill-rule:nonzero;stroke:none"
             d="m 0,0 c 4.329,-21.157 6.603,-43.062 6.603,-65.499 0,-179.492 -145.508,-325 -325,-325 -179.493,0 -325,145.508 -325,325 0,22.052 2.196,43.591 6.382,64.41 L 0,0 Z" /></g></g></g><g
       id="g5220"><g
         clip-path="url(#clipPath5224)"
         id="g5222"><g
           transform="translate(575,250)"
           id="g5228"><path
             id="path5230"
             style="fill:#ffc825;fill-opacity:1;fill-rule:nonzero;stroke:none"
             d="m 0,0 c 0,-96.65 -78.35,-175 -175,-175 -96.65,0 -175,78.35 -175,175 0,96.65 78.35,175 175,175 C -78.35,175 0,96.65 0,0" /></g></g></g><path
       id="path5232"
       style="fill:#eda220;fill-opacity:1;fill-rule:nonzero;stroke:none"
       d="m 682.843,117.157 -565.685,0 0,565.685 565.685,0 0,-565.685 z" /><g
       transform="translate(399.9996,800.0001)"
       id="g5234"><path
         id="path5236"
         style="fill:#eda220;fill-opacity:1;fill-rule:nonzero;stroke:none"
         d="M 0,0 -400,-400 0,-800 400,-400 0,0 Z" /></g><g
       id="g5238"><g
         clip-path="url(#clipPath5242)"
         id="g5240"><g
           transform="translate(400,117.1573)"
           id="g5246"><path
             id="path5248"
             style="fill:#ffc825;fill-opacity:1;fill-rule:nonzero;stroke:none"
             d="m 0,0 c -156.21,0 -282.843,126.633 -282.843,282.843 0,156.209 126.633,282.842 282.843,282.842 156.21,0 282.843,-126.633 282.843,-282.842 C 282.843,126.633 156.21,0 0,0" /></g></g></g><g
       transform="translate(289.7552,233.6289)"
       id="g5250"><path
         id="path5252"
         style="fill:#a7a9ac;fill-opacity:1;fill-rule:nonzero;stroke:none"
         d="M 0,0 0,249.823 200,400 400,249.823 400,0 0,0 Z" /></g><g
       transform="translate(289.7552,233.6289)"
       id="g5254"><path
         id="path5256"
         style="fill:#d1d3d4;fill-opacity:1;fill-rule:nonzero;stroke:none"
         d="M 0,0 0,249.823 200,400 269.451,249.823 269.451,0 0,0 Z" /></g><path
       id="path5258"
       style="fill:#bcbec0;fill-opacity:1;fill-rule:nonzero;stroke:none"
       d="m 507.067,233.629 -91.065,0 0,173.258 91.065,0 0,-173.258 z" /><g
       id="g5260"><g
         clip-path="url(#clipPath5264)"
         id="g5262"><g
           transform="translate(369,253.6289)"
           id="g5268"><path
             id="path5270"
             style="fill:#ededee;fill-opacity:1;fill-rule:nonzero;stroke:none"
             d="m 0,0 c 0,-99.411 -80.589,-180 -180,-180 -99.411,0 -180,80.589 -180,180 0,99.411 80.589,180 180,180 C -80.589,180 0,99.411 0,0" /></g><g
           transform="translate(185.4612,73.6289)"
           id="g5272"><path
             id="path5274"
             style="fill:#ededee;fill-opacity:1;fill-rule:nonzero;stroke:none"
             d="m 0,0 435.882,0 c 78.472,0 125,55.964 125,125 0,69.036 -55.965,125 -125,125 L 158.456,250 0,0 Z" /></g></g></g></g></svg>